<svg width="59" height="33" viewBox="0 0 59 33" fill="none" xmlns="http://www.w3.org/2000/svg">
<g clip-path="url(#clip0_446_92)">
<path fill-rule="evenodd" clip-rule="evenodd" d="M3.62817 0.85791H4.53793C4.56529 0.85791 4.59949 0.85791 4.62685 0.85791H4.63369H4.68157C9.75704 0.864821 14.0664 2.68936 15.6123 7.44422H15.626C15.8038 8.28738 16.522 8.90938 17.3839 8.90938C18.2389 8.90938 18.9572 8.28738 19.1419 7.44422H19.1555C20.7083 2.68936 25.0108 0.864821 30.0863 0.85791H30.1273H30.1547H33.0823C33.8552 0.85791 34.4845 1.50065 34.4845 2.2816V25.3579C34.4845 25.6689 34.3888 25.9522 34.2178 26.1872C33.6227 26.2287 33.0344 26.2494 32.4325 26.2494C31.5706 26.2494 30.7087 26.208 29.8674 26.1319C28.7456 25.3579 26.0642 23.6163 25.216 22.8837C24.272 22.0613 24.0942 21.3356 23.9848 20.6376C23.9779 20.5685 23.9779 20.2022 23.9369 19.9879C23.8616 19.7046 23.9984 19.0342 24.019 18.6956C24.0463 18.1427 23.9984 17.6174 24.0874 17.0576C24.19 16.408 24.3747 15.8551 24.3678 15.392C24.361 14.5489 24.5183 14.2102 24.6483 13.4085L25.3186 10.7063C25.4759 10.2985 25.9205 9.74563 25.9889 9.31714C26.0232 9.13745 25.7564 8.75734 25.6196 8.65367C25.004 8.20445 23.5401 9.24803 23.1639 9.76637C22.5825 10.5819 22.5962 10.6579 22.2063 11.5149C21.7138 12.6276 22.0353 12.5308 21.0845 13.8508C20.8109 14.2379 20.1474 14.3346 19.607 14.3692C19.566 14.5212 19.5318 14.6733 19.4976 14.8322C19.4497 15.081 19.4839 15.1294 19.5386 15.3575C19.5523 15.4197 19.566 15.4681 19.5796 15.5372C19.5933 15.6063 19.6002 15.6339 19.6138 15.703C19.6207 15.7791 19.6344 15.7998 19.648 15.8689C19.6959 16.2006 19.7643 17.0231 19.8122 17.258C19.9011 17.6381 20.12 17.9422 20.3252 18.2671C20.462 18.4882 20.7904 19.0204 20.8998 19.2554C20.9545 19.3728 20.9956 19.4834 21.0571 19.594C21.1324 19.753 21.2555 19.905 21.3444 20.0709C21.4881 20.3473 21.7412 20.6721 21.4949 20.9831C21.3718 21.1421 21.1392 21.1075 20.9956 20.9901C20.6194 20.6929 20.4415 20.216 20.1542 19.829C20.0174 19.6424 19.8738 19.4696 19.7164 19.2968C19.5249 19.0826 19.3129 18.7025 19.0666 18.6541C19.0393 18.82 19.1282 19.0066 19.1829 19.1655C19.2103 19.2554 19.2376 19.3314 19.265 19.4212C19.2923 19.5111 19.3129 19.6009 19.3334 19.6908C19.4018 20.0363 19.5181 20.3957 19.5112 20.7551C19.5044 20.9279 19.5454 21.1214 19.5386 21.2941C19.5386 21.4738 19.5933 21.6397 19.6207 21.8263C19.6275 21.8816 19.6344 21.8885 19.648 21.9438L19.7506 22.3515C19.7712 22.4345 19.7848 22.5174 19.778 22.6073C19.7575 22.9044 19.566 23.091 19.3676 23.1187C19.2171 23.0427 19.0735 22.9666 18.9298 22.8906C18.8546 22.8008 18.8272 22.704 18.7998 22.5312C18.7862 22.4621 18.7725 22.4137 18.7588 22.3377L18.6288 21.7157C18.5604 21.2389 18.5536 21.3011 18.4647 20.8864C18.4236 20.6791 18.3689 20.4786 18.2868 20.2851C18.2458 20.1745 18.1021 19.7322 18.0201 19.67L17.9517 19.6147C17.8696 19.7184 17.8833 19.7806 17.8833 19.9188C17.8833 20.0018 17.8764 20.0709 17.8833 20.1607L17.8696 20.7551C17.8696 20.8104 17.8627 20.8173 17.8627 20.8726L17.8764 21.3563C17.8764 21.7641 17.8559 21.9714 17.9175 22.3239C17.5207 22.0958 17.1377 21.8609 16.7546 21.6121C16.7136 21.4185 16.6862 21.225 16.6931 21.0246L16.6315 19.9465C16.6246 19.829 16.6246 19.4558 16.5494 19.4005C16.3442 19.2346 16.2553 19.3521 16.1595 19.5525L15.5576 20.7896C15.2361 20.5546 14.9146 20.3197 14.6068 20.0709L14.9967 18.9374C15.0856 18.7094 15.1608 18.585 15.1745 18.3293C15.195 17.7971 15.3455 17.9008 15.2634 17.576C15.2292 17.4377 15.2224 17.2857 15.1403 17.1475C15.0788 17.03 14.6547 16.7535 14.5452 16.7328C14.5042 16.7259 14.4494 16.719 14.4084 16.719C14.0459 16.6775 13.7381 16.8779 13.4166 17.0161C13.2319 17.0922 13.0472 17.2027 12.8557 17.2511C12.6505 17.2995 12.5137 17.3271 12.2879 17.3202C12.0485 17.3133 11.5492 17.1129 11.5013 16.8226C11.4329 16.4011 11.8502 16.3527 12.1374 16.2214C12.329 16.1315 12.5137 16.0901 12.7052 15.9864C12.8283 15.9173 12.8694 15.9173 12.9856 15.8689L13.8543 15.4404C13.957 15.3851 14.0254 15.3367 14.128 15.2884C14.3947 15.1709 14.7436 14.8806 14.9625 14.6802C15.1608 14.5005 15.325 14.3623 15.5097 14.2379C16.1185 13.837 16.1458 13.92 16.4331 13.291C16.4742 13.2081 16.5084 13.1183 16.5494 13.0353L16.1732 12.5446C15.7833 12.1023 15.6328 11.5563 15.3045 11.0933L14.4084 9.61432C14.2716 9.44845 14.2306 9.42081 14.1211 9.24803C13.6423 8.50163 12.8694 7.90036 12.4247 7.1194C12.1853 6.70473 11.6928 6.09655 11.1798 5.72335C10.7557 5.41235 10.1333 5.47455 9.8186 5.90995C9.31242 6.61489 10.6736 8.13534 10.9541 8.66749C11.4671 9.65579 11.7954 9.82857 12.1238 10.9136L12.4726 11.8259C12.6505 12.206 13.1977 12.8142 12.6505 13.1114C12.37 12.9939 12.5 12.9731 12.2537 12.7658L11.2209 11.7568C10.5231 11.2523 9.7844 10.6164 9.13457 10.0497C8.99093 9.92532 8.77204 9.78019 8.61472 9.6627C8.27954 9.42081 8.01961 9.1651 7.7118 8.86792C7.51344 8.68132 6.4532 8.00403 6.21379 7.95565C5.9607 7.90727 5.73497 7.94874 5.54344 8.0524C4.62001 5.78555 3.97019 3.37356 3.62817 0.85791ZM9.3261 14.694C8.42319 13.4984 7.60236 12.2336 6.88413 10.8998C6.91833 10.9274 6.94569 10.962 6.97306 10.9896C7.31507 11.3075 7.91701 11.9918 8.24534 12.2544C8.47791 12.441 8.68996 12.6276 8.85412 12.8764C9.24402 13.4638 9.7502 13.8578 10.2632 14.3415C10.3658 14.4383 10.5505 14.6387 10.6394 14.7493C10.8104 14.9635 10.7215 14.9843 10.5437 15.2331L10.0854 15.1018C9.8186 14.9774 9.57235 14.8391 9.3261 14.694Z" fill="#BFD630"/>
<path fill-rule="evenodd" clip-rule="evenodd" d="M1.69266 0.85791H4.5382C4.56557 0.85791 4.59977 0.85791 4.62713 0.85791H4.63397H4.68185C9.75731 0.864821 14.0667 2.68936 15.6126 7.44422H15.6262C15.8041 8.28738 16.5223 8.90938 17.3842 8.90938C18.2392 8.90938 18.9575 8.28738 19.1421 7.44422H19.1558C20.7086 2.68936 25.0111 0.864821 30.0865 0.85791H30.1276H30.1549H33.0826C33.8555 0.85791 34.4848 1.50065 34.4848 2.2816V25.3579C34.4848 26.1388 33.8555 26.7747 33.0826 26.7747H30.6816C30.5106 26.6364 30.3943 26.512 30.1618 26.3393C29.3341 25.738 26.1534 23.6923 25.2163 22.8837C24.2723 22.0613 24.0945 21.3356 23.985 20.6376C23.9782 20.5685 23.9782 20.2022 23.9372 19.9879C23.8619 19.7046 23.9987 19.0342 24.0192 18.6956C24.0466 18.1427 23.9987 17.6174 24.0876 17.0576C24.1902 16.408 24.3749 15.8551 24.3681 15.392C24.3612 14.5489 24.5186 14.2102 24.6485 13.4085L25.3189 10.7063C25.4762 10.2985 25.9208 9.74563 25.9892 9.31714C26.0234 9.13745 25.7567 8.75734 25.6199 8.65367C25.0042 8.20445 23.5404 9.24803 23.1642 9.76637C22.5828 10.5819 22.5965 10.6579 22.2066 11.5149C21.7141 12.6276 22.0356 12.5308 21.0848 13.8508C20.8112 14.2379 20.1477 14.3346 19.6073 14.3692C19.5662 14.5212 19.532 14.6733 19.4978 14.8322C19.4499 15.081 19.4841 15.1294 19.5389 15.3575C19.5526 15.4197 19.5662 15.4681 19.5799 15.5372C19.5936 15.6063 19.6004 15.6339 19.6141 15.703C19.621 15.7791 19.6346 15.7998 19.6483 15.8689C19.6962 16.2006 19.7646 17.0231 19.8125 17.258C19.9014 17.6381 20.1203 17.9422 20.3255 18.2671C20.4623 18.4882 20.7906 19.0204 20.9001 19.2554C20.9548 19.3728 20.9958 19.4834 21.0574 19.594C21.1327 19.753 21.2558 19.905 21.3447 20.0709C21.4883 20.3473 21.7414 20.6721 21.4952 20.9831C21.3721 21.1421 21.1395 21.1075 20.9958 20.99C20.6196 20.6929 20.4418 20.216 20.1545 19.829C20.0177 19.6424 19.874 19.4696 19.7167 19.2968C19.5252 19.0826 19.3131 18.7025 19.0669 18.6541C19.0395 18.82 19.1285 19.0066 19.1832 19.1655C19.2105 19.2554 19.2379 19.3314 19.2653 19.4212C19.2926 19.5111 19.3131 19.6009 19.3337 19.6908C19.4021 20.0363 19.5184 20.3957 19.5115 20.7551C19.5047 20.9278 19.5457 21.1214 19.5389 21.2941C19.5389 21.4738 19.5936 21.6397 19.621 21.8263C19.6278 21.8816 19.6346 21.8885 19.6483 21.9438L19.7509 22.3515C19.7714 22.4345 19.7851 22.5174 19.7783 22.6073C19.7441 23.0565 19.3337 23.2362 19.0874 23.0427C18.8822 22.8768 18.8412 22.8008 18.8001 22.5312C18.7864 22.4621 18.7728 22.4137 18.7591 22.3377L18.6291 21.7157C18.5607 21.2389 18.5539 21.3011 18.465 20.8864C18.4239 20.679 18.3692 20.4786 18.2871 20.2851C18.2461 20.1745 18.1024 19.7322 18.0203 19.67L17.9519 19.6147C17.8699 19.7184 17.8835 19.7806 17.8835 19.9188C17.8835 20.0018 17.8767 20.0709 17.8835 20.1607L17.8699 20.7551C17.8699 20.8104 17.863 20.8173 17.863 20.8726L17.8767 21.3563C17.8767 21.847 17.8425 22.0405 17.9588 22.552L18.0545 23.0219C18.1435 23.3537 18.0682 23.6647 17.692 23.7199C17.1516 23.796 17.0285 22.9805 16.9327 22.6003C16.8849 22.4276 16.8712 22.2479 16.8507 22.0682L16.8028 21.8125C16.7412 21.5499 16.6796 21.2872 16.6933 21.0246L16.6318 19.9465C16.6249 19.829 16.6249 19.4558 16.5497 19.4005C16.3445 19.2346 16.2556 19.3521 16.1598 19.5525L15.4005 21.1006C15.2842 21.3563 15.2158 21.6051 15.1064 21.8609C15.0243 22.0682 14.8807 22.5036 14.696 22.6073C14.5113 22.7247 13.9641 22.704 14.0256 21.9853L14.053 21.7641C14.0667 21.7226 14.0667 21.7226 14.0735 21.6812C14.1282 21.3909 14.3061 20.9209 14.4155 20.6238L14.9969 18.9374C15.0859 18.7094 15.1611 18.585 15.1748 18.3293C15.1953 17.7971 15.3458 17.9008 15.2637 17.5759C15.2295 17.4377 15.2227 17.2857 15.1406 17.1475C15.079 17.03 14.6549 16.7535 14.5455 16.7328C14.5044 16.7259 14.4497 16.719 14.4087 16.719C14.0462 16.6775 13.7383 16.8779 13.4168 17.0161C13.2322 17.0922 13.0475 17.2027 12.8559 17.2511C12.6507 17.2995 12.5139 17.3271 12.2882 17.3202C12.0488 17.3133 11.5495 17.1129 11.5016 16.8226C11.4332 16.4011 11.8504 16.3527 12.1377 16.2214C12.3292 16.1315 12.5139 16.0901 12.7055 15.9864C12.8286 15.9173 12.8696 15.9173 12.9859 15.8689L13.8546 15.4404C13.9572 15.3851 14.0256 15.3367 14.1282 15.2884C14.395 15.1709 14.7439 14.8806 14.9627 14.6802C15.1611 14.5005 15.3253 14.3623 15.51 14.2379C16.1187 13.837 16.1461 13.92 16.4334 13.291C16.4744 13.2081 16.5086 13.1183 16.5497 13.0353L16.1735 12.5446C15.7836 12.1023 15.6331 11.5563 15.3048 11.0933L14.4087 9.61432C14.2719 9.44845 14.2308 9.42081 14.1214 9.24803C13.6426 8.50163 12.8696 7.90036 12.425 7.1194C12.1856 6.70473 11.6931 6.09655 11.1801 5.72335C10.756 5.41235 10.1335 5.47455 9.81888 5.90995C9.3127 6.61489 10.6739 8.13534 10.9544 8.66749C11.4674 9.65579 11.7957 9.82856 12.124 10.9136L12.4729 11.8259C12.6507 12.206 13.198 12.8142 12.6507 13.1114C12.3703 12.9939 12.5003 12.9731 12.254 12.7658L11.2211 11.7568C10.5234 11.2523 9.78468 10.6164 9.13485 10.0497C8.99121 9.92532 8.77232 9.78019 8.61499 9.6627C8.27982 9.42081 8.01989 9.1651 7.71208 8.86792C7.51371 8.68132 6.45347 8.00402 6.21407 7.95565C5.37271 7.78978 4.73657 8.68132 5.29063 9.38625C5.61212 9.79401 6.11146 10.2571 6.56292 10.5888C6.73392 10.7132 6.82969 10.8514 6.97333 10.9896C7.31535 11.3075 7.91729 11.9918 8.24562 12.2544C8.47819 12.441 8.69024 12.6276 8.8544 12.8764C9.2443 13.4638 9.75047 13.8578 10.2635 14.3415C10.3661 14.4383 10.5508 14.6387 10.6397 14.7493C10.8107 14.9635 10.7218 14.9843 10.5439 15.2331L10.0856 15.1018C9.62051 14.8875 9.2101 14.6249 8.76548 14.3761C8.66288 14.3208 8.44399 14.2171 8.3277 14.148C7.88309 13.8716 7.47951 13.5398 6.98701 13.3049C6.28931 12.9662 4.59293 11.3421 3.8747 11.5702C3.2796 11.7568 3.07439 12.5516 3.45745 13.0215C4.11411 13.8232 4.98282 14.1411 5.37271 14.5281C6.09778 15.24 6.68604 15.5233 7.35639 16.0209C7.82152 16.3665 8.31402 16.7466 8.786 17.0783C9.02541 17.2373 9.59999 17.4723 9.68207 17.7418C9.70943 17.8178 9.73679 17.9837 9.68207 18.0528C9.44266 18.3915 9.23062 18.3846 8.8886 18.2878C8.79968 18.2602 8.73812 18.2532 8.62867 18.2325C7.22642 18.0044 7.0349 18.0459 5.56424 17.6243C5.39324 17.5759 5.20855 17.4861 5.04438 17.4446C4.87338 17.4032 4.72289 17.4101 4.5382 17.3686C3.99782 17.2442 2.91707 16.9609 2.69818 17.7073C2.64346 17.8869 2.65714 18.039 2.70502 18.2049C2.84182 18.7301 3.58057 19.0066 4.01151 19.1724C4.48348 19.3521 4.97598 19.435 5.44796 19.6286C5.60528 19.6908 5.72841 19.7391 5.90625 19.7944L9.71627 21.0039C10.0925 21.1628 10.5508 21.4946 10.9202 21.7641C11.2964 22.0405 12.1514 22.9321 12.4524 23.3329C13.369 24.2383 13.8683 24.3696 14.908 25.0953L17.4321 26.2356C17.6441 26.4015 17.8356 26.5812 18.0135 26.7747H1.69266C0.919713 26.7747 0.283569 26.1388 0.283569 25.3579V2.2816C0.283569 1.50065 0.919713 0.85791 1.69266 0.85791Z" fill="#289640"/>
<path fill-rule="evenodd" clip-rule="evenodd" d="M1.69266 0.85791H4.5382C4.56557 0.85791 4.59977 0.85791 4.62713 0.85791H4.63397H4.68185C9.75731 0.864821 14.0667 2.68936 15.6126 7.44422H15.6262C15.8041 8.28738 16.5223 8.90938 17.3842 8.90938C18.2392 8.90938 18.9574 8.28738 19.1421 7.44422H19.1558C19.2926 7.02955 19.4499 6.63562 19.6278 6.26242C19.5936 10.9689 18.4581 15.4128 16.4744 19.3452C16.324 19.2623 16.2419 19.3728 16.1598 19.5525L15.4005 21.1006C15.3253 21.2734 15.2637 21.4462 15.2022 21.619C14.9833 21.9714 14.7575 22.317 14.525 22.6625C14.2924 22.6764 13.9777 22.5381 14.0256 21.9853L14.053 21.7641C14.0667 21.7226 14.0667 21.7226 14.0735 21.6812C14.1282 21.3909 14.3061 20.9209 14.4155 20.6238L14.9969 18.9374C15.0859 18.7094 15.1611 18.585 15.1748 18.3293C15.1953 17.7971 15.3458 17.9008 15.2637 17.5759C15.2295 17.4377 15.2227 17.2857 15.1406 17.1475C15.079 17.03 14.6549 16.7535 14.5455 16.7328C14.5044 16.7259 14.4497 16.719 14.4087 16.719C14.0462 16.6775 13.7383 16.8779 13.4168 17.0161C13.2322 17.0922 13.0475 17.2027 12.8559 17.2511C12.6507 17.2995 12.5139 17.3271 12.2882 17.3202C12.0488 17.3133 11.5495 17.1129 11.5016 16.8226C11.4332 16.4011 11.8504 16.3527 12.1377 16.2214C12.3292 16.1315 12.5139 16.0901 12.7055 15.9864C12.8286 15.9173 12.8696 15.9173 12.9859 15.8689L13.8546 15.4404C13.9572 15.3851 14.0256 15.3367 14.1282 15.2884C14.395 15.1709 14.7439 14.8806 14.9627 14.6802C15.1611 14.5005 15.3253 14.3623 15.51 14.2379C16.1187 13.837 16.1461 13.92 16.4334 13.291C16.4744 13.2081 16.5086 13.1183 16.5497 13.0353L16.1735 12.5446C15.7836 12.1023 15.6331 11.5563 15.3048 11.0933L14.4087 9.61432C14.2719 9.44845 14.2308 9.42081 14.1214 9.24803C13.6426 8.50163 12.8696 7.90036 12.425 7.1194C12.1856 6.70473 11.6931 6.09655 11.1801 5.72335C10.756 5.41235 10.1335 5.47455 9.81888 5.90995C9.3127 6.61489 10.6739 8.13534 10.9544 8.66749C11.4674 9.65579 11.7957 9.82856 12.124 10.9136L12.4729 11.8259C12.6507 12.206 13.198 12.8142 12.6507 13.1114C12.3703 12.9939 12.5003 12.9731 12.254 12.7658L11.2211 11.7568C10.5234 11.2523 9.78468 10.6164 9.13485 10.0497C8.99121 9.92532 8.77232 9.78019 8.61499 9.6627C8.27982 9.42081 8.01989 9.1651 7.71208 8.86792C7.51371 8.68132 6.45347 8.00402 6.21407 7.95565C5.37271 7.78978 4.73657 8.68132 5.29063 9.38625C5.61212 9.79401 6.11146 10.2571 6.56292 10.5888C6.73392 10.7132 6.82969 10.8514 6.97333 10.9896C7.31535 11.3075 7.91729 11.9918 8.24562 12.2544C8.47819 12.441 8.69024 12.6276 8.8544 12.8764C9.2443 13.4638 9.75047 13.8578 10.2635 14.3415C10.3661 14.4383 10.5508 14.6387 10.6397 14.7493C10.8107 14.9635 10.7218 14.9843 10.5439 15.2331L10.0856 15.1018C9.62051 14.8875 9.21009 14.6249 8.76548 14.3761C8.66287 14.3208 8.44399 14.2171 8.3277 14.148C7.88309 13.8716 7.47951 13.5398 6.98701 13.3049C6.28931 12.9662 4.59293 11.3421 3.8747 11.5702C3.2796 11.7568 3.07439 12.5516 3.45744 13.0215C4.11411 13.8232 4.98282 14.1411 5.37271 14.5281C6.09778 15.24 6.68604 15.5233 7.35639 16.0209C7.82152 16.3665 8.31402 16.7466 8.786 17.0783C9.02541 17.2373 9.59999 17.4723 9.68207 17.7418C9.70943 17.8178 9.73679 17.9837 9.68207 18.0528C9.44266 18.3915 9.23061 18.3846 8.8886 18.2878C8.79968 18.2602 8.73812 18.2532 8.62867 18.2325C7.22642 18.0044 7.03489 18.0459 5.56424 17.6243C5.39324 17.5759 5.20855 17.4861 5.04438 17.4446C4.87338 17.4032 4.72289 17.4101 4.5382 17.3686C3.99782 17.2442 2.91707 16.9609 2.69818 17.7073C2.64346 17.8869 2.65714 18.039 2.70502 18.2049C2.84182 18.7301 3.58057 19.0066 4.01151 19.1724C4.48348 19.3521 4.97598 19.435 5.44796 19.6286C5.60528 19.6908 5.72841 19.7391 5.90625 19.7944L9.71627 21.0039C10.0925 21.1628 10.5508 21.4946 10.9202 21.7641C11.2964 22.0405 12.1514 22.9321 12.4524 23.3329C12.8286 23.7061 13.1364 23.948 13.4374 24.1484C12.726 25.0745 11.9599 25.9453 11.139 26.7747H1.69266C0.919712 26.7747 0.283569 26.1388 0.283569 25.3579V2.2816C0.283569 1.50065 0.919712 0.85791 1.69266 0.85791Z" fill="#BFD630"/>
<path fill-rule="evenodd" clip-rule="evenodd" d="M1.69266 0.85791H4.5382C4.56557 0.85791 4.59977 0.85791 4.62713 0.85791H4.63397H4.68185C9.2443 0.864821 13.1843 2.33689 15.0585 6.08964C14.6755 7.00882 14.2445 7.90036 13.7657 8.77116C13.3142 8.22518 12.7739 7.72758 12.425 7.1194C12.1856 6.70473 11.6931 6.09655 11.1801 5.72335C10.756 5.41235 10.1335 5.47455 9.81888 5.90995C9.3127 6.61489 10.6739 8.13534 10.9544 8.66749C11.4674 9.65579 11.7957 9.82856 12.124 10.9136L12.254 11.2453C12.042 11.5494 11.8368 11.8466 11.6179 12.1438L11.2211 11.7568C10.5234 11.2523 9.78468 10.6164 9.13485 10.0497C8.99121 9.92532 8.77232 9.78019 8.61499 9.6627C8.27982 9.42081 8.01989 9.1651 7.71208 8.86792C7.51371 8.68132 6.45347 8.00402 6.21407 7.95565C5.37271 7.78978 4.73657 8.68132 5.29063 9.38625C5.61212 9.79401 6.11146 10.2571 6.56292 10.5888C6.73392 10.7132 6.82969 10.8514 6.97333 10.9896C7.31535 11.3075 7.91729 11.9917 8.24562 12.2544C8.47819 12.441 8.69024 12.6276 8.8544 12.8764C9.18273 13.3671 9.59315 13.7264 10.0241 14.1204C9.83256 14.3346 9.63419 14.5489 9.43582 14.7631C9.21693 14.6318 8.99805 14.5005 8.76548 14.3761C8.66287 14.3208 8.44399 14.2171 8.3277 14.148C7.88309 13.8716 7.47951 13.5398 6.98701 13.3049C6.28931 12.9662 4.59293 11.3421 3.8747 11.5702C3.2796 11.7568 3.07439 12.5516 3.45744 13.0215C4.11411 13.8232 4.98282 14.1411 5.37271 14.5281C6.09778 15.24 6.68604 15.5233 7.35639 16.0209C7.50687 16.1315 7.6642 16.249 7.81468 16.3665C7.28114 16.8572 6.72024 17.3341 6.1525 17.7833C5.9815 17.7418 5.78997 17.6865 5.56424 17.6243C5.39324 17.5759 5.20855 17.4861 5.04438 17.4446C4.87338 17.4032 4.72289 17.4101 4.5382 17.3686C3.99782 17.2442 2.91707 16.9609 2.69818 17.7073C2.64346 17.8869 2.65714 18.039 2.70502 18.2049C2.84182 18.7301 3.58057 19.0066 4.01151 19.1724C4.05939 19.1862 4.10727 19.207 4.15515 19.2208C2.93075 20.0294 1.6311 20.7482 0.283569 21.3702V2.2816C0.283569 1.50065 0.919712 0.85791 1.69266 0.85791Z" fill="#73B843"/>
<path fill-rule="evenodd" clip-rule="evenodd" d="M21.762 3.44268C23.862 1.62505 26.817 0.864821 30.0866 0.85791H30.1276H30.155H33.0826C33.8556 0.85791 34.4849 1.50065 34.4849 2.2816V25.3579C34.4849 26.1388 33.8556 26.7747 33.0826 26.7747H30.6817C30.5928 26.6986 30.5107 26.6295 30.4286 26.5535C27.7472 23.9065 25.572 20.7412 24.0672 17.2097C24.074 17.1613 24.0809 17.1129 24.0877 17.0576C24.1903 16.408 24.375 15.8551 24.3681 15.392C24.3613 14.5489 24.5186 14.2102 24.6486 13.4085L25.3189 10.7063C25.4763 10.2985 25.9209 9.74563 25.9893 9.31714C26.0235 9.13745 25.7567 8.75734 25.6199 8.65367C25.0043 8.20445 23.5405 9.24803 23.1643 9.76637C22.6102 10.5404 22.5965 10.6441 22.2613 11.3974C21.8851 9.51065 21.6868 7.56171 21.6868 5.55748C21.6868 4.84564 21.7141 4.1407 21.762 3.44268Z" fill="#FDAF17"/>
<path fill-rule="evenodd" clip-rule="evenodd" d="M34.4847 12.0479V25.3587C34.4847 26.1397 33.8554 26.7755 33.0825 26.7755H30.6816C30.5105 26.6373 30.3943 26.5129 30.1617 26.3401C29.334 25.7388 26.1533 23.6931 25.2162 22.8845C24.6963 22.4353 24.409 22.0068 24.238 21.599C26.8305 17.639 30.3532 14.3493 34.4847 12.0479Z" fill="#F68121"/>
<path d="M1.96261 27.8163H2.61004C2.91377 27.8163 3.18353 27.8849 3.41933 28.0222C3.65512 28.1595 3.84029 28.3506 3.97483 28.5956C4.10938 28.8406 4.17666 29.1246 4.17666 29.4476C4.17666 29.7706 4.10938 30.0553 3.97483 30.3016C3.84029 30.5479 3.65512 30.7404 3.41933 30.879C3.18353 31.0177 2.91377 31.087 2.61004 31.087H1.96261C1.65888 31.087 1.38912 31.0183 1.15333 30.8811C0.917535 30.7438 0.732366 30.5526 0.597818 30.3077C0.46327 30.0627 0.395996 29.7787 0.395996 29.4557C0.395996 29.1326 0.46327 28.848 0.597818 28.6017C0.732366 28.3553 0.917535 28.1629 1.15333 28.0242C1.38912 27.8856 1.65888 27.8163 1.96261 27.8163ZM1.96261 28.2605C1.73082 28.2605 1.53499 28.3096 1.37513 28.4078C1.2166 28.5061 1.09604 28.6447 1.01345 28.8237C0.932189 29.0028 0.891558 29.2134 0.891558 29.4557C0.891558 29.6953 0.932189 29.9039 1.01345 30.0816C1.09604 30.2592 1.2166 30.3972 1.37513 30.4954C1.53499 30.5937 1.73082 30.6428 1.96261 30.6428H2.61004C2.84184 30.6428 3.037 30.5937 3.19552 30.4954C3.35538 30.3972 3.47594 30.2585 3.5572 30.0795C3.6398 29.9005 3.68109 29.6899 3.68109 29.4476C3.68109 29.208 3.6398 28.9994 3.5572 28.8217C3.47594 28.6441 3.35538 28.5061 3.19552 28.4078C3.037 28.3096 2.84184 28.2605 2.61004 28.2605H1.96261ZM2.5381 27.251V31.6281H2.04254V27.251H2.5381Z" fill="black"/>
<path d="M6.18988 31.5231C5.91279 31.5231 5.66967 31.4565 5.46052 31.3232C5.2527 31.19 5.09018 31.0035 4.97295 30.764C4.85706 30.5244 4.79911 30.2444 4.79911 29.9241C4.79911 29.601 4.85706 29.3191 4.97295 29.0781C5.09018 28.8372 5.2527 28.6501 5.46052 28.5169C5.66967 28.3836 5.91279 28.317 6.18988 28.317C6.46697 28.317 6.70942 28.3836 6.91723 28.5169C7.12638 28.6501 7.28891 28.8372 7.4048 29.0781C7.52203 29.3191 7.58065 29.601 7.58065 29.9241C7.58065 30.2444 7.52203 30.5244 7.4048 30.764C7.28891 31.0035 7.12638 31.19 6.91723 31.3232C6.70942 31.4565 6.46697 31.5231 6.18988 31.5231ZM6.18988 31.0951C6.40036 31.0951 6.57354 31.0406 6.70942 30.9315C6.8453 30.8225 6.94588 30.6792 7.01115 30.5015C7.07643 30.3238 7.10907 30.1314 7.10907 29.9241C7.10907 29.7168 7.07643 29.5236 7.01115 29.3446C6.94588 29.1656 6.8453 29.0209 6.70942 28.9106C6.57354 28.8002 6.40036 28.745 6.18988 28.745C5.9794 28.745 5.80622 28.8002 5.67034 28.9106C5.53446 29.0209 5.43388 29.1656 5.3686 29.3446C5.30333 29.5236 5.27069 29.7168 5.27069 29.9241C5.27069 30.1314 5.30333 30.3238 5.3686 30.5015C5.43388 30.6792 5.53446 30.8225 5.67034 30.9315C5.80622 31.0406 5.9794 31.0951 6.18988 31.0951Z" fill="black"/>
<path d="M10.3547 29.6899V30.134H8.6602V29.6899H10.3547ZM8.7721 28.3574V31.4585H8.30051V28.3574H8.7721ZM10.7144 28.3574V31.4585H10.2428V28.3574H10.7144Z" fill="black"/>
<path d="M11.2479 32.3468V31.0143H11.5037C11.5663 30.9484 11.6202 30.877 11.6655 30.8003C11.7108 30.7236 11.7501 30.6327 11.7834 30.5277C11.8181 30.4214 11.8474 30.2922 11.8714 30.1401C11.8953 29.9867 11.9167 29.8016 11.9353 29.5849L12.0392 28.3574H13.9895V31.0143H14.4611V32.3468H13.9895V31.4585H11.7195V32.3468H11.2479ZM12.0392 31.0143H13.5179V28.8015H12.4788L12.3989 29.5849C12.3656 29.9093 12.3243 30.1926 12.275 30.4349C12.2257 30.6771 12.1471 30.8703 12.0392 31.0143Z" fill="black"/>
<path d="M16.7336 27.3237H17.325L18.7158 30.7559H18.7638L20.1545 27.3237H20.746V31.4585H20.2824V28.317H20.2425L18.9636 31.4585H18.516L17.2371 28.317H17.1972V31.4585H16.7336V27.3237Z" fill="black"/>
<path d="M22.9226 31.5231C22.6455 31.5231 22.4024 31.4565 22.1932 31.3232C21.9854 31.19 21.8229 31.0035 21.7057 30.764C21.5898 30.5244 21.5318 30.2444 21.5318 29.9241C21.5318 29.601 21.5898 29.3191 21.7057 29.0781C21.8229 28.8372 21.9854 28.6501 22.1932 28.5169C22.4024 28.3836 22.6455 28.317 22.9226 28.317C23.1997 28.317 23.4421 28.3836 23.65 28.5169C23.8591 28.6501 24.0216 28.8372 24.1375 29.0781C24.2547 29.3191 24.3134 29.601 24.3134 29.9241C24.3134 30.2444 24.2547 30.5244 24.1375 30.764C24.0216 31.0035 23.8591 31.19 23.65 31.3232C23.4421 31.4565 23.1997 31.5231 22.9226 31.5231ZM22.9226 31.0951C23.1331 31.0951 23.3063 31.0406 23.4421 30.9315C23.578 30.8225 23.6786 30.6792 23.7439 30.5015C23.8091 30.3238 23.8418 30.1314 23.8418 29.9241C23.8418 29.7168 23.8091 29.5236 23.7439 29.3446C23.6786 29.1656 23.578 29.0209 23.4421 28.9106C23.3063 28.8002 23.1331 28.745 22.9226 28.745C22.7121 28.745 22.5389 28.8002 22.4031 28.9106C22.2672 29.0209 22.1666 29.1656 22.1013 29.3446C22.036 29.5236 22.0034 29.7168 22.0034 29.9241C22.0034 30.1314 22.036 30.3238 22.1013 30.5015C22.1666 30.6792 22.2672 30.8225 22.4031 30.9315C22.5389 31.0406 22.7121 31.0951 22.9226 31.0951Z" fill="black"/>
<path d="M25.0332 32.6214V28.3574H25.4888V28.85H25.5448C25.5794 28.7962 25.6274 28.7275 25.6887 28.6441C25.7513 28.5593 25.8405 28.4839 25.9564 28.4179C26.0736 28.3506 26.2322 28.317 26.432 28.317C26.6904 28.317 26.9182 28.3823 27.1154 28.5128C27.3125 28.6434 27.4664 28.8285 27.577 29.068C27.6876 29.3076 27.7428 29.5903 27.7428 29.916C27.7428 30.2444 27.6876 30.5291 27.577 30.77C27.4664 31.0096 27.3132 31.1953 27.1174 31.3272C26.9216 31.4578 26.6958 31.5231 26.44 31.5231C26.2428 31.5231 26.085 31.4901 25.9664 31.4242C25.8478 31.3569 25.7566 31.2808 25.6926 31.196C25.6287 31.1099 25.5794 31.0385 25.5448 30.982H25.5048V32.6214H25.0332ZM25.4968 29.9079C25.4968 30.1421 25.5308 30.3487 25.5987 30.5277C25.6667 30.7054 25.7659 30.8447 25.8965 30.9457C26.027 31.0453 26.1869 31.0951 26.376 31.0951C26.5732 31.0951 26.7377 31.0426 26.8696 30.9376C27.0028 30.8313 27.1027 30.6886 27.1693 30.5096C27.2373 30.3292 27.2713 30.1287 27.2713 29.9079C27.2713 29.6899 27.2379 29.4934 27.1713 29.3184C27.1061 29.1421 27.0068 29.0028 26.8736 28.9005C26.7417 28.7968 26.5759 28.745 26.376 28.745C26.1842 28.745 26.023 28.7941 25.8925 28.8924C25.7619 28.9893 25.6633 29.1252 25.5967 29.3002C25.5301 29.4738 25.4968 29.6764 25.4968 29.9079Z" fill="black"/>
<path d="M29.3654 31.5312C29.1709 31.5312 28.9944 31.4941 28.8359 31.4201C28.6773 31.3447 28.5515 31.2364 28.4582 31.0951C28.365 30.9524 28.3183 30.7801 28.3183 30.5782C28.3183 30.4005 28.353 30.2565 28.4222 30.1462C28.4915 30.0344 28.5841 29.947 28.7 29.8837C28.8159 29.8204 28.9438 29.7733 29.0837 29.7424C29.2249 29.7101 29.3667 29.6845 29.5093 29.6656C29.6958 29.6414 29.847 29.6232 29.9629 29.6111C30.0801 29.5977 30.1654 29.5755 30.2186 29.5445C30.2733 29.5136 30.3006 29.4597 30.3006 29.383V29.3668C30.3006 29.1676 30.2466 29.0129 30.1387 28.9025C30.0321 28.7921 29.8703 28.7369 29.6531 28.7369C29.428 28.7369 29.2515 28.7867 29.1236 28.8863C28.9957 28.9859 28.9058 29.0923 28.8539 29.2053L28.4062 29.0438C28.4862 28.8554 28.5928 28.7087 28.726 28.6037C28.8605 28.4973 29.0071 28.4233 29.1656 28.3816C29.3254 28.3385 29.4826 28.317 29.6372 28.317C29.7357 28.317 29.849 28.3291 29.9769 28.3533C30.1061 28.3762 30.2306 28.424 30.3505 28.4967C30.4718 28.5694 30.5723 28.6791 30.6523 28.8258C30.7322 28.9725 30.7722 29.169 30.7722 29.4153V31.4585H30.3006V31.0385H30.2766C30.2446 31.1058 30.1913 31.1778 30.1167 31.2546C30.0421 31.3313 29.9429 31.3966 29.819 31.4504C29.6951 31.5042 29.5439 31.5312 29.3654 31.5312ZM29.4373 31.1031C29.6238 31.1031 29.781 31.0661 29.9089 30.9921C30.0381 30.9181 30.1354 30.8225 30.2007 30.7054C30.2673 30.5883 30.3006 30.4652 30.3006 30.3359V29.8998C30.2806 29.9241 30.2366 29.9463 30.1687 29.9665C30.1021 29.9853 30.0248 30.0021 29.9369 30.0169C29.8503 30.0304 29.7657 30.0425 29.6831 30.0533C29.6019 30.0627 29.5359 30.0708 29.4853 30.0775C29.3627 30.0937 29.2482 30.1199 29.1416 30.1563C29.0364 30.1912 28.9511 30.2444 28.8858 30.3158C28.8219 30.3857 28.7899 30.4813 28.7899 30.6024C28.7899 30.768 28.8505 30.8932 28.9717 30.978C29.0943 31.0614 29.2495 31.1031 29.4373 31.1031Z" fill="black"/>
<path d="M33.9988 28.3574V31.4585H33.5272V28.3574H33.9988ZM33.815 29.8352V30.2794C33.7084 30.3198 33.6025 30.3555 33.4973 30.3864C33.392 30.416 33.2814 30.4396 33.1655 30.4571C33.0496 30.4732 32.9224 30.4813 32.7839 30.4813C32.4362 30.4813 32.1571 30.3864 31.9466 30.1966C31.7375 30.0069 31.6329 29.7222 31.6329 29.3426V28.3493H32.1045V29.3426C32.1045 29.5014 32.1345 29.632 32.1944 29.7343C32.2543 29.8366 32.3356 29.9126 32.4382 29.9624C32.5408 30.0122 32.656 30.0371 32.7839 30.0371C32.9837 30.0371 33.1642 30.019 33.3254 29.9826C33.4879 29.9449 33.6511 29.8958 33.815 29.8352Z" fill="black"/>
<path d="M34.864 31.4585V28.3574H35.3356V29.706H35.6474L36.7504 28.3574H37.3578L36.1189 29.8514L37.3738 31.4585H36.7664L35.7593 30.1502H35.3356V31.4585H34.864Z" fill="black"/>
<path d="M39.0069 31.5231C38.7298 31.5231 38.4867 31.4565 38.2775 31.3232C38.0697 31.19 37.9072 31.0035 37.79 30.764C37.6741 30.5244 37.6161 30.2444 37.6161 29.9241C37.6161 29.601 37.6741 29.3191 37.79 29.0781C37.9072 28.8372 38.0697 28.6501 38.2775 28.5169C38.4867 28.3836 38.7298 28.317 39.0069 28.317C39.284 28.317 39.5264 28.3836 39.7342 28.5169C39.9434 28.6501 40.1059 28.8372 40.2218 29.0781C40.339 29.3191 40.3977 29.601 40.3977 29.9241C40.3977 30.2444 40.339 30.5244 40.2218 30.764C40.1059 31.0035 39.9434 31.19 39.7342 31.3232C39.5264 31.4565 39.284 31.5231 39.0069 31.5231ZM39.0069 31.0951C39.2174 31.0951 39.3905 31.0406 39.5264 30.9315C39.6623 30.8225 39.7629 30.6792 39.8282 30.5015C39.8934 30.3238 39.9261 30.1314 39.9261 29.9241C39.9261 29.7168 39.8934 29.5236 39.8282 29.3446C39.7629 29.1656 39.6623 29.0209 39.5264 28.9106C39.3905 28.8002 39.2174 28.745 39.0069 28.745C38.7964 28.745 38.6232 28.8002 38.4873 28.9106C38.3515 29.0209 38.2509 29.1656 38.1856 29.3446C38.1203 29.5236 38.0877 29.7168 38.0877 29.9241C38.0877 30.1314 38.1203 30.3238 38.1856 30.5015C38.2509 30.6792 38.3515 30.8225 38.4873 30.9315C38.6232 31.0406 38.7964 31.0951 39.0069 31.0951Z" fill="black"/>
<path d="M41.1175 31.4585V28.3574H42.3724C42.7028 28.3574 42.9652 28.4327 43.1597 28.5835C43.3542 28.7342 43.4515 28.9334 43.4515 29.1811C43.4515 29.3695 43.3962 29.5156 43.2856 29.6192C43.175 29.7215 43.0332 29.7908 42.86 29.8272C42.9732 29.8433 43.0831 29.8837 43.1897 29.9483C43.2976 30.0129 43.3868 30.1017 43.4575 30.2148C43.5281 30.3265 43.5634 30.4638 43.5634 30.6267C43.5634 30.7855 43.5234 30.9275 43.4435 31.0527C43.3635 31.1778 43.249 31.2768 43.0998 31.3495C42.9506 31.4221 42.7721 31.4585 42.5642 31.4585H41.1175ZM41.5651 31.0224H42.5642C42.7268 31.0224 42.854 30.9834 42.9459 30.9053C43.0378 30.8272 43.0838 30.7209 43.0838 30.5863C43.0838 30.4261 43.0378 30.3003 42.9459 30.2087C42.854 30.1159 42.7268 30.0694 42.5642 30.0694H41.5651V31.0224ZM41.5651 29.6576H42.3724C42.499 29.6576 42.6075 29.6401 42.6981 29.6051C42.7887 29.5687 42.858 29.5176 42.9059 29.4516C42.9552 29.3843 42.9799 29.3049 42.9799 29.2134C42.9799 29.0828 42.9259 28.9805 42.818 28.9065C42.7101 28.8311 42.5616 28.7935 42.3724 28.7935H41.5651V29.6576Z" fill="black"/>
<path d="M45.5241 31.5231C45.2364 31.5231 44.9886 31.4544 44.7808 31.3172C44.573 31.1799 44.4131 30.9908 44.3012 30.7498C44.1893 30.5089 44.1334 30.2336 44.1334 29.9241C44.1334 29.6091 44.1906 29.3312 44.3052 29.0902C44.4211 28.848 44.5823 28.6589 44.7888 28.5229C44.9966 28.3856 45.239 28.317 45.5161 28.317C45.7319 28.317 45.9264 28.3574 46.0996 28.4381C46.2728 28.5189 46.4147 28.6319 46.5252 28.7773C46.6358 28.9227 46.7044 29.0923 46.7311 29.2861H46.2595C46.2235 29.1448 46.1436 29.0196 46.0197 28.9106C45.8971 28.8002 45.7319 28.745 45.5241 28.745C45.3403 28.745 45.1791 28.7935 45.0406 28.8904C44.9033 28.9859 44.7961 29.1212 44.7188 29.2962C44.6429 29.4698 44.6049 29.6737 44.6049 29.9079C44.6049 30.1475 44.6422 30.3561 44.7168 30.5338C44.7928 30.7115 44.8993 30.8494 45.0366 30.9477C45.1751 31.0459 45.3376 31.0951 45.5241 31.0951C45.6467 31.0951 45.7579 31.0735 45.8578 31.0305C45.9577 30.9874 46.0423 30.9255 46.1116 30.8447C46.1809 30.764 46.2302 30.667 46.2595 30.554H46.7311C46.7044 30.737 46.6385 30.9019 46.5332 31.0486C46.4293 31.194 46.2914 31.3097 46.1196 31.3959C45.9491 31.4807 45.7506 31.5231 45.5241 31.5231Z" fill="black"/>
<path d="M47.4205 31.4585V28.3574H47.892V29.706H48.2038L49.3068 28.3574H49.9142L48.6753 29.8514L49.9302 31.4585H49.3228L48.3157 30.1502H47.892V31.4585H47.4205Z" fill="black"/>
<path d="M51.5633 31.5231C51.2862 31.5231 51.0431 31.4565 50.8339 31.3232C50.6261 31.19 50.4636 31.0035 50.3464 30.764C50.2305 30.5244 50.1725 30.2444 50.1725 29.9241C50.1725 29.601 50.2305 29.3191 50.3464 29.0781C50.4636 28.8372 50.6261 28.6501 50.8339 28.5169C51.0431 28.3836 51.2862 28.317 51.5633 28.317C51.8404 28.317 52.0828 28.3836 52.2906 28.5169C52.4998 28.6501 52.6623 28.8372 52.7782 29.0781C52.8955 29.3191 52.9541 29.601 52.9541 29.9241C52.9541 30.2444 52.8955 30.5244 52.7782 30.764C52.6623 31.0035 52.4998 31.19 52.2906 31.3232C52.0828 31.4565 51.8404 31.5231 51.5633 31.5231ZM51.5633 31.0951C51.7738 31.0951 51.947 31.0406 52.0828 30.9315C52.2187 30.8225 52.3193 30.6792 52.3846 30.5015C52.4498 30.3238 52.4825 30.1314 52.4825 29.9241C52.4825 29.7168 52.4498 29.5236 52.3846 29.3446C52.3193 29.1656 52.2187 29.0209 52.0828 28.9106C51.947 28.8002 51.7738 28.745 51.5633 28.745C51.3528 28.745 51.1796 28.8002 51.0438 28.9106C50.9079 29.0209 50.8073 29.1656 50.742 29.3446C50.6767 29.5236 50.6441 29.7168 50.6441 29.9241C50.6441 30.1314 50.6767 30.3238 50.742 30.5015C50.8073 30.6792 50.9079 30.8225 51.0438 30.9315C51.1796 31.0406 51.3528 31.0951 51.5633 31.0951Z" fill="black"/>
<path d="M55.5683 28.3574V28.8015H54.1455V31.4585H53.6739V28.3574H55.5683Z" fill="black"/>
<path d="M57.3442 31.5231C57.0671 31.5231 56.824 31.4565 56.6148 31.3232C56.407 31.19 56.2445 31.0035 56.1273 30.764C56.0114 30.5244 55.9534 30.2444 55.9534 29.9241C55.9534 29.601 56.0114 29.3191 56.1273 29.0781C56.2445 28.8372 56.407 28.6501 56.6148 28.5169C56.824 28.3836 57.0671 28.317 57.3442 28.317C57.6213 28.317 57.8637 28.3836 58.0715 28.5169C58.2807 28.6501 58.4432 28.8372 58.5591 29.0781C58.6763 29.3191 58.735 29.601 58.735 29.9241C58.735 30.2444 58.6763 30.5244 58.5591 30.764C58.4432 31.0035 58.2807 31.19 58.0715 31.3232C57.8637 31.4565 57.6213 31.5231 57.3442 31.5231ZM57.3442 31.0951C57.5547 31.0951 57.7278 31.0406 57.8637 30.9315C57.9996 30.8225 58.1002 30.6792 58.1655 30.5015C58.2307 30.3238 58.2634 30.1314 58.2634 29.9241C58.2634 29.7168 58.2307 29.5236 58.1655 29.3446C58.1002 29.1656 57.9996 29.0209 57.8637 28.9106C57.7278 28.8002 57.5547 28.745 57.3442 28.745C57.1337 28.745 56.9605 28.8002 56.8246 28.9106C56.6888 29.0209 56.5882 29.1656 56.5229 29.3446C56.4576 29.5236 56.425 29.7168 56.425 29.9241C56.425 30.1314 56.4576 30.3238 56.5229 30.5015C56.5882 30.6792 56.6888 30.8225 56.8246 30.9315C56.9605 31.0406 57.1337 31.0951 57.3442 31.0951Z" fill="black"/>
</g>
<defs>
<clipPath id="clip0_446_92">
<rect width="59" height="32" fill="white" transform="translate(0 0.854492)"/>
</clipPath>
</defs>
</svg>
