<svg width="24" height="25" viewBox="0 0 24 25" fill="none" xmlns="http://www.w3.org/2000/svg">
<g clip-path="url(#clip0_434_8324)">
<path d="M5.0297 20.9374L4.39561 21.7106L5.0297 20.9374ZM15.018 10.4272C15.018 12.0799 13.671 13.4272 12 13.4272V15.4272C14.7671 15.4272 17.018 13.1929 17.018 10.4272H15.018ZM12 13.4272C10.329 13.4272 8.98201 12.0799 8.98201 10.4272H6.98201C6.98201 13.1929 9.23287 15.4272 12 15.4272V13.4272ZM8.98201 10.4272C8.98201 8.77462 10.329 7.42725 12 7.42725V5.42725C9.23287 5.42725 6.98201 7.6616 6.98201 10.4272H8.98201ZM12 7.42725C13.671 7.42725 15.018 8.77462 15.018 10.4272H17.018C17.018 7.6616 14.7671 5.42725 12 5.42725V7.42725ZM2 12.4272C2 6.9044 6.47715 2.42725 12 2.42725V0.427246C5.37258 0.427246 0 5.79983 0 12.4272H2ZM12 2.42725C17.5228 2.42725 22 6.9044 22 12.4272H24C24 5.79983 18.6274 0.427246 12 0.427246V2.42725ZM9 18.4272H15V16.4272H9V18.4272ZM15 18.4272C16.5317 18.4272 17.7966 19.5761 17.9777 21.0586L19.9629 20.8162C19.6609 18.3426 17.5549 16.4272 15 16.4272V18.4272ZM22 12.4272C22 15.5448 20.5746 18.3286 18.3362 20.1641L19.6044 21.7106C22.2862 19.5115 24 16.1691 24 12.4272H22ZM18.3362 20.1641C16.6109 21.5789 14.4059 22.4272 12 22.4272V24.4272C14.885 24.4272 17.5346 23.4079 19.6044 21.7106L18.3362 20.1641ZM6.02233 21.0586C6.20336 19.5761 7.46827 18.4272 9 18.4272V16.4272C6.44514 16.4272 4.33913 18.3426 4.03707 20.8161L6.02233 21.0586ZM12 22.4272C9.59415 22.4272 7.38911 21.5789 5.66379 20.1641L4.39561 21.7106C6.46536 23.4079 9.11498 24.4272 12 24.4272V22.4272ZM5.66379 20.1641C3.4254 18.3286 2 15.5448 2 12.4272H0C0 16.1691 1.71384 19.5115 4.39561 21.7106L5.66379 20.1641Z" fill="#1A1A1A"/>
</g>
<defs>
<clipPath id="clip0_434_8324">
<rect width="24" height="24" fill="white" transform="translate(0 0.427246)"/>
</clipPath>
</defs>
</svg>
