<svg width="24" height="24" viewBox="0 0 24 24" fill="none" xmlns="http://www.w3.org/2000/svg">
<path d="M18 22C18 22.5523 17.5523 23 17 23C16.4477 23 16 22.5523 16 22C15.4477 22 15 21.5523 15 21C15 20.4477 15.4477 20 16 20L16 19C15.4477 19 15 18.5523 15 18C15 17.4477 15.4477 17 16 17L16 10C16 9.44772 16.4477 9 17 9C17.5523 9 18 9.44772 18 10L18 17C18.5523 17 19 17.4477 19 18C19 18.5523 18.5523 19 18 19L18 20C18.5523 20 19 20.4477 19 21C19 21.5523 18.5523 22 18 22Z" fill="#1A1A1A"/>
<path fill-rule="evenodd" clip-rule="evenodd" d="M16.3149 9L17.685 9C18.2766 9 18.7389 8.48918 18.68 7.90049L18.28 3.9005C18.2289 3.38929 17.7988 3 17.285 3L16.7149 3C16.2012 3 15.771 3.38929 15.7199 3.9005L15.3199 7.9005C15.261 8.48918 15.7233 9 16.3149 9ZM17.685 11C19.4599 11 20.8467 9.46754 20.6701 7.70149L20.2701 3.70149C20.1168 2.16788 18.8263 1 17.285 1L16.7149 1C15.1737 1 13.8832 2.16789 13.7298 3.70149L13.3298 7.70149C13.1532 9.46755 14.5401 11 16.3149 11L17.685 11Z" fill="#1A1A1A"/>
<path fill-rule="evenodd" clip-rule="evenodd" d="M6 5C5.44772 5 5 5.44772 5 6V7.24648C3.87844 7.7332 3.11776 8.88417 3.1992 10.1871L3.8242 20.1871C3.92302 21.7682 5.23417 23 6.81836 23H7.18165C8.76584 23 10.077 21.7682 10.1758 20.1871L10.8008 10.1871C10.8822 8.88417 10.1216 7.7332 9 7.24648V6C9 5.44772 8.55228 5 8 5H6ZM6.19336 9H7.80665C8.38347 9 8.84068 9.48668 8.8047 10.0624L8.1797 20.0624C8.14676 20.5894 7.70971 21 7.18165 21H6.81836C6.29029 21 5.85324 20.5894 5.8203 20.0624L5.1953 10.0624C5.15932 9.48668 5.61654 9 6.19336 9Z" fill="#1A1A1A"/>
</svg>
