<svg width="24" height="24" viewBox="0 0 24 24" fill="none" xmlns="http://www.w3.org/2000/svg">
<path fill-rule="evenodd" clip-rule="evenodd" d="M12 20C16.4183 20 20 16.4183 20 12C20 7.58172 16.4183 4 12 4C7.58172 4 4 7.58172 4 12C4 16.4183 7.58172 20 12 20ZM12 22C17.5228 22 22 17.5228 22 12C22 6.47715 17.5228 2 12 2C6.47715 2 2 6.47715 2 12C2 17.5228 6.47715 22 12 22Z" fill="#1A1A1A"/>
<path d="M5.99995 20.0005C8.42884 18.1761 9.99995 15.2714 9.99995 11.9998C9.99995 8.72812 8.42884 5.82344 5.99995 3.99902C5.45406 4.40906 4.9515 4.87365 4.50037 5.38472C6.6129 6.82473 7.99995 9.25026 7.99995 11.9998C7.99995 14.7492 6.6129 17.1748 4.50037 18.6148C4.9515 19.1259 5.45406 19.5905 5.99995 20.0005Z" fill="#1A1A1A"/>
<path d="M17.9999 3.99903C15.5711 5.82344 13.9999 8.72812 13.9999 11.9998C13.9999 15.2714 15.5711 18.1761 17.9999 20.0005C18.5458 19.5905 19.0484 19.1259 19.4995 18.6148C17.387 17.1748 15.9999 14.7492 15.9999 11.9998C15.9999 9.25026 17.387 6.82473 19.4995 5.38472C19.0484 4.87366 18.5458 4.40906 17.9999 3.99903Z" fill="#1A1A1A"/>
</svg>
