<svg width="24" height="24" viewBox="0 0 24 24" fill="none" xmlns="http://www.w3.org/2000/svg">
<path fill-rule="evenodd" clip-rule="evenodd" d="M18 8H6C4.89543 8 4 8.89543 4 10V18C4 19.1046 4.89543 20 6 20H18C19.1046 20 20 19.1046 20 18V10C20 8.89543 19.1046 8 18 8ZM6 6C3.79086 6 2 7.79086 2 10V18C2 20.2091 3.79086 22 6 22H18C20.2091 22 22 20.2091 22 18V10C22 7.79086 20.2091 6 18 6H6Z" fill="#1A1A1A"/>
<path d="M12 10C11.4477 10 11 10.4477 11 11V13H9C8.44772 13 8 13.4477 8 14C8 14.5523 8.44771 15 9 15H11V17C11 17.5523 11.4477 18 12 18C12.5523 18 13 17.5523 13 17V15H15C15.5523 15 16 14.5523 16 14C16 13.4477 15.5523 13 15 13H13V11C13 10.4477 12.5523 10 12 10Z" fill="#1A1A1A"/>
<path fill-rule="evenodd" clip-rule="evenodd" d="M10 4C9.44772 4 9 4.44772 9 5V6C9 6.55228 8.55228 7 8 7C7.44772 7 7 6.55228 7 6V5C7 3.34315 8.34315 2 10 2H14C15.6569 2 17 3.34315 17 5V6C17 6.55228 16.5523 7 16 7C15.4477 7 15 6.55228 15 6V5C15 4.44772 14.5523 4 14 4H10Z" fill="#1A1A1A"/>
</svg>
