<svg width="24" height="25" viewBox="0 0 24 25" fill="none" xmlns="http://www.w3.org/2000/svg">
<g clip-path="url(#clip0_446_2530)">
<path d="M12 24.8545C18.6274 24.8545 24 19.4819 24 12.8545C24 6.22707 18.6274 0.854492 12 0.854492C5.37258 0.854492 0 6.22707 0 12.8545C0 19.4819 5.37258 24.8545 12 24.8545Z" fill="#338AF3"/>
<path d="M18.783 12.9849H5.21777C5.21777 13.9214 6.03345 14.6805 6.96987 14.6805H6.91343C6.91343 15.617 7.67257 16.3762 8.60909 16.3762C8.60909 17.3127 9.36823 18.0718 10.3047 18.0718H13.6961C14.6326 18.0718 15.3917 17.3127 15.3917 16.3762C16.3282 16.3762 17.0874 15.617 17.0874 14.6805H17.0309C17.9673 14.6805 18.783 13.9214 18.783 12.9849Z" fill="#FFDA44"/>
<path d="M16.695 10.7676C16.695 13.3609 14.5927 15.4632 11.9994 15.4632C9.40601 15.4632 7.30371 13.3609 7.30371 10.7676" fill="#338AF3"/>
<path d="M15.5873 10.7674L14.1218 11.4567L14.9022 12.8761L13.3108 12.5717L13.1092 14.1793L12.0007 12.9969L10.8922 14.1793L10.6906 12.5717L9.09919 12.876L9.87956 11.4567L8.41406 10.7674L9.87961 10.078L9.09919 8.65869L10.6905 8.96309L10.8922 7.35547L12.0007 8.53789L13.1092 7.35547L13.3108 8.96309L14.9023 8.65869L14.1218 10.0781L15.5873 10.7674Z" fill="#FFDA44"/>
</g>
<defs>
<clipPath id="clip0_446_2530">
<rect width="24" height="24" fill="white" transform="translate(0 0.854492)"/>
</clipPath>
</defs>
</svg>
