<svg width="24" height="25" viewBox="0 0 24 25" fill="none" xmlns="http://www.w3.org/2000/svg">
<g clip-path="url(#clip0_446_2535)">
<path d="M12 24.8545C18.6274 24.8545 24 19.4819 24 12.8545C24 6.22707 18.6274 0.854492 12 0.854492C5.37258 0.854492 0 6.22707 0 12.8545C0 19.4819 5.37258 24.8545 12 24.8545Z" fill="#F0F0F0"/>
<path d="M23.2536 17.0284C23.736 15.7285 24 14.3224 24 12.8546C24 11.3867 23.736 9.98065 23.2536 8.68066H0.746391C0.264047 9.98065 0 11.3867 0 12.8546C0 14.3224 0.264047 15.7285 0.746391 17.0284L12 18.0719L23.2536 17.0284Z" fill="#0052B4"/>
<path d="M12.0007 24.8544C17.1603 24.8544 21.5588 21.5979 23.2543 17.0283H0.74707C2.44259 21.5979 6.8411 24.8544 12.0007 24.8544Z" fill="#D80027"/>
</g>
<defs>
<clipPath id="clip0_446_2535">
<rect width="24" height="24" fill="white" transform="translate(0 0.854492)"/>
</clipPath>
</defs>
</svg>
