<svg width="24" height="25" viewBox="0 0 24 25" fill="none" xmlns="http://www.w3.org/2000/svg">
<path d="M12.5322 22.6456L11.86 21.9053L12.5322 22.6456ZM11.4678 22.6456L12.14 21.9053L11.4678 22.6456ZM18 10.8564C18 13.2984 16.9116 15.676 15.5516 17.6784C14.1999 19.6686 12.6452 21.1922 11.86 21.9053L13.2045 23.3859C14.0531 22.6153 15.7324 20.9719 17.206 18.8021C18.6715 16.6445 20 13.8694 20 10.8564H18ZM12.14 21.9053C11.3548 21.1922 9.80015 19.6686 8.44842 17.6784C7.08842 15.676 6 13.2984 6 10.8564H4C4 13.8694 5.32853 16.6445 6.79395 18.8021C8.26765 20.9719 9.94688 22.6153 10.7955 23.3859L12.14 21.9053ZM6 10.8564C6 7.54139 8.68655 4.85449 12 4.85449V2.85449C7.58146 2.85449 4 6.43735 4 10.8564H6ZM12 4.85449C15.3134 4.85449 18 7.54139 18 10.8564H20C20 6.43735 16.4185 2.85449 12 2.85449V4.85449ZM11.86 21.9053C11.891 21.8771 11.9413 21.8545 12 21.8545C12.0587 21.8545 12.109 21.8771 12.14 21.9053L10.7955 23.3859C11.4835 24.0107 12.5165 24.0107 13.2045 23.3859L11.86 21.9053ZM13.625 10.8564C13.625 11.7546 12.8972 12.4822 12 12.4822V14.4822C14.0023 14.4822 15.625 12.8586 15.625 10.8564H13.625ZM12 12.4822C11.1028 12.4822 10.375 11.7546 10.375 10.8564H8.375C8.375 12.8586 9.99771 14.4822 12 14.4822V12.4822ZM10.375 10.8564C10.375 9.95831 11.1028 9.23071 12 9.23071V7.23071C9.99771 7.23071 8.375 8.85427 8.375 10.8564H10.375ZM12 9.23071C12.8972 9.23071 13.625 9.95831 13.625 10.8564H15.625C15.625 8.85427 14.0023 7.23071 12 7.23071V9.23071Z" fill="#23A600"/>
</svg>
