<svg width="24" height="25" viewBox="0 0 24 25" fill="none" xmlns="http://www.w3.org/2000/svg">
<path d="M11.5245 2.31802C11.6741 1.85736 12.3259 1.85736 12.4755 2.31802L14.5819 8.8008C14.6488 9.00681 14.8408 9.14629 15.0574 9.14629H21.8738C22.3582 9.14629 22.5596 9.7661 22.1677 10.0508L16.6531 14.0574C16.4779 14.1847 16.4046 14.4104 16.4715 14.6164L18.5779 21.0992C18.7276 21.5598 18.2003 21.9429 17.8085 21.6582L12.2939 17.6516C12.1186 17.5243 11.8814 17.5243 11.7061 17.6516L6.19153 21.6582C5.79967 21.9429 5.27243 21.5598 5.42211 21.0992L7.52849 14.6164C7.59543 14.4104 7.5221 14.1847 7.34685 14.0574L1.83227 10.0508C1.44041 9.7661 1.6418 9.14629 2.12616 9.14629H8.94256C9.15917 9.14629 9.35115 9.00681 9.41809 8.8008L11.5245 2.31802Z" fill="#FFB84D"/>
</svg>