<svg width="22" height="21" viewBox="0 0 22 21" fill="none" xmlns="http://www.w3.org/2000/svg">
<path d="M10.5245 1.31802C10.6741 0.857363 11.3259 0.857362 11.4755 1.31802L13.5819 7.8008C13.6488 8.00681 13.8408 8.14629 14.0574 8.14629H20.8738C21.3582 8.14629 21.5596 8.7661 21.1677 9.0508L15.6531 13.0574C15.4779 13.1847 15.4046 13.4104 15.4715 13.6164L17.5779 20.0992C17.7276 20.5598 17.2003 20.9429 16.8085 20.6582L11.2939 16.6516C11.1186 16.5243 10.8814 16.5243 10.7061 16.6516L5.19153 20.6582C4.79967 20.9429 4.27243 20.5598 4.42211 20.0992L6.52849 13.6164C6.59543 13.4104 6.5221 13.1847 6.34685 13.0574L0.832272 9.0508C0.440415 8.7661 0.641802 8.14629 1.12616 8.14629H7.94256C8.15917 8.14629 8.35115 8.00681 8.41809 7.8008L10.5245 1.31802Z" fill="#CECECE"/>
</svg>
