<svg width="24" height="24" viewBox="0 0 24 24" fill="none" xmlns="http://www.w3.org/2000/svg">
<path d="M3 17V7C3 4.79086 4.79086 3 7 3H17C19.2091 3 21 4.79086 21 7V17C21 19.2091 19.2091 21 17 21H7C4.79086 21 3 19.2091 3 17Z" stroke="#1A1A1A" stroke-width="2"/>
<mask id="path-2-inside-1_434_7388" fill="white">
<path d="M8.12313 14C6.39827 14 4.9451 12.5602 5.53284 10.9385C5.88463 9.96793 6.40024 9.08601 7.05025 8.34315C7.70026 7.60028 8.47194 7.011 9.32122 6.60896C10.1705 6.20693 11.0807 6 12 6C12.9193 6 13.8295 6.20693 14.6788 6.60896C15.5281 7.011 16.2997 7.60028 16.9497 8.34315C17.5998 9.08602 18.1154 9.96793 18.4672 10.9385C19.0549 12.5602 17.6017 14 15.8769 14L12 14L8.12313 14Z"/>
</mask>
<path d="M8.12313 14C6.39827 14 4.9451 12.5602 5.53284 10.9385C5.88463 9.96793 6.40024 9.08601 7.05025 8.34315C7.70026 7.60028 8.47194 7.011 9.32122 6.60896C10.1705 6.20693 11.0807 6 12 6C12.9193 6 13.8295 6.20693 14.6788 6.60896C15.5281 7.011 16.2997 7.60028 16.9497 8.34315C17.5998 9.08602 18.1154 9.96793 18.4672 10.9385C19.0549 12.5602 17.6017 14 15.8769 14L12 14L8.12313 14Z" stroke="#1A1A1A" stroke-width="4" mask="url(#path-2-inside-1_434_7388)"/>
<rect x="10.2925" y="10.1543" width="2" height="4.1537" rx="1" transform="rotate(-24.3806 10.2925 10.1543)" fill="#1A1A1A"/>
</svg>
