<svg width="171" height="34" viewBox="0 0 171 34" fill="none" xmlns="http://www.w3.org/2000/svg">
<mask id="path-1-inside-1_463_4523" fill="white">
<path fill-rule="evenodd" clip-rule="evenodd" d="M52 17.3536V7.85449H53.0813L56.8828 13.6703L60.7017 7.85449H61.7654V17.3536H60.6144V9.93411L56.8828 15.5559L53.151 9.93411V17.3536H52ZM68.1654 16.5078C69.1538 16.5078 69.9499 16.2376 70.5545 15.6971C71.159 15.1565 71.4613 14.4869 71.4613 13.688C71.4613 12.8891 71.159 12.2192 70.5545 11.6788C69.9499 11.1384 69.1538 10.8683 68.1654 10.8683C67.1888 10.8683 66.3984 11.1354 65.794 11.6701C65.1892 12.2045 64.8872 12.8771 64.8872 13.688C64.8872 14.4986 65.1892 15.1712 65.794 15.7059C66.3984 16.2405 67.1888 16.5078 68.1654 16.5078ZM68.1654 17.5828C66.8633 17.5828 65.7966 17.2097 64.9655 16.4636C64.1344 15.7176 63.7187 14.7924 63.7187 13.688C63.7187 12.5835 64.1314 11.6612 64.9569 10.9211C65.7821 10.1809 66.8518 9.81057 68.1654 9.81057C69.4909 9.81057 70.5661 10.1809 71.3916 10.9211C72.2171 11.6612 72.6296 12.5835 72.6296 13.688C72.6296 14.8041 72.2171 15.7323 71.3916 16.4726C70.5661 17.2127 69.4909 17.5828 68.1654 17.5828ZM75.6289 13.0711H79.5002C80.3025 13.0711 80.7037 12.7362 80.7037 12.0665C80.7037 11.4086 80.3025 11.0796 79.5002 11.0796H75.6289V13.0711ZM75.6289 14.1462V17.3536H74.4954V10.0223H79.5002C80.2443 10.0223 80.8256 10.2013 81.244 10.5597C81.6627 10.918 81.8719 11.4203 81.8719 12.0665C81.8719 12.5952 81.712 13.0477 81.3924 13.4235C81.0727 13.7995 80.6336 14.0346 80.0758 14.1285L82.0985 17.3536H80.8604L78.8029 14.1462H75.6289ZM85.1676 14.5163H88.0102L86.5974 11.6965L85.1676 14.5163ZM82.5345 17.3536L86.2313 10.0047H86.9464L90.6783 17.3536H89.4576L88.5158 15.4855H84.6794L83.7377 17.3536H82.5345ZM98.5429 14.9216L99.4497 15.5559C98.6126 16.9072 97.3049 17.5828 95.5261 17.5828C94.2472 17.5828 93.1951 17.2157 92.3699 16.4814C91.5444 15.747 91.1317 14.8218 91.1317 13.7056C91.1317 12.5896 91.5444 11.6612 92.3699 10.9211C93.1951 10.1809 94.2472 9.81057 95.5261 9.81057C97.2003 9.81057 98.4441 10.3864 99.258 11.5379L98.3512 12.1724C97.7117 11.3028 96.77 10.8683 95.5261 10.8683C94.5843 10.8683 93.8114 11.1354 93.2069 11.6701C92.6022 12.2045 92.3002 12.8771 92.3002 13.688C92.3002 14.4986 92.6052 15.1712 93.2156 15.7059C93.8259 16.2405 94.5962 16.5078 95.5261 16.5078C96.805 16.5078 97.8106 15.9791 98.5429 14.9216ZM102.501 13.9348V17.3536H101.368V10.0047H102.501V12.8597H107.611V10.0047H108.744V17.3536H107.611V13.9348H102.501ZM111.238 17.3536V10.0223H112.371V13.2825L116.225 10.0223H117.725L114.673 12.6306L118.178 17.3536H116.906L113.871 13.3003L112.371 14.5867V17.3536H111.238ZM123.323 16.5078C124.311 16.5078 125.107 16.2376 125.712 15.6971C126.316 15.1565 126.619 14.4869 126.619 13.688C126.619 12.8891 126.316 12.2192 125.712 11.6788C125.107 11.1384 124.311 10.8683 123.323 10.8683C122.346 10.8683 121.556 11.1354 120.951 11.6701C120.347 12.2045 120.045 12.8771 120.045 13.688C120.045 14.4986 120.347 15.1712 120.951 15.7059C121.556 16.2405 122.346 16.5078 123.323 16.5078ZM123.323 17.5828C122.021 17.5828 120.954 17.2097 120.123 16.4636C119.292 15.7176 118.876 14.7924 118.876 13.688C118.876 12.5835 119.289 11.6612 120.114 10.9211C120.939 10.1809 122.009 9.81057 123.323 9.81057C124.648 9.81057 125.724 10.1809 126.549 10.9211C127.375 11.6612 127.787 12.5835 127.787 13.688C127.787 14.8041 127.375 15.7323 126.549 16.4726C125.724 17.2127 124.648 17.5828 123.323 17.5828ZM132.809 17.3536H132.216L128.572 10.0047H129.775L132.513 15.5031L135.198 10.0047H136.454L132.809 17.3536ZM137.238 16.4195L137.797 15.4503C138.854 16.1671 139.965 16.5254 141.127 16.5254C141.801 16.5254 142.33 16.3902 142.714 16.12C143.098 15.8498 143.289 15.5091 143.289 15.0977C143.289 14.6748 143.106 14.3636 142.74 14.1639C142.374 13.9641 141.801 13.8523 141.022 13.8289C139.802 13.8056 138.918 13.6643 138.372 13.406C137.826 13.1476 137.552 12.648 137.552 11.9079C137.552 11.2853 137.82 10.7801 138.354 10.3924C138.889 10.0047 139.622 9.81057 140.552 9.81057C141.796 9.81057 142.97 10.1632 144.074 10.8683L143.499 11.8197C142.522 11.1735 141.534 10.8505 140.534 10.8505C139.965 10.8505 139.517 10.9475 139.191 11.1415C138.866 11.3352 138.703 11.5907 138.703 11.9079C138.703 12.2486 138.88 12.4837 139.235 12.6129C139.59 12.7422 140.168 12.8067 140.97 12.8067C143.307 12.8067 144.475 13.5938 144.475 15.1684C144.475 15.8497 144.182 16.4225 143.595 16.8867C143.008 17.3506 142.226 17.5828 141.249 17.5828C139.784 17.5828 138.448 17.195 137.238 16.4195ZM146.515 17.3536V10.0223H147.649V13.2825L151.503 10.0223H153.003L149.951 12.6306L153.456 17.3536H152.183L149.149 13.3003L147.649 14.5867V17.3536H146.515ZM160.553 17.3536V13.5999L157.24 10.0047H158.705L161.112 12.6129L163.483 10.0047H165L161.669 13.5821V17.3536H160.553ZM154.799 17.3714V9.9869H155.95V17.3714H154.799ZM79.5088 27.9597H83.6416L81.5666 23.7477L79.5088 27.9597ZM76.4746 31.6254L81.0781 22.1262H82.0546L86.7109 31.6254H85.4379L84.1649 29.0698H78.9682L77.7299 31.6254H76.4746ZM94.314 29.1934L95.2208 29.8277C94.3837 31.1789 93.076 31.8545 91.2973 31.8545C90.0184 31.8545 88.9662 31.4874 88.141 30.7531C87.3155 30.0187 86.9028 29.0935 86.9028 27.9774C86.9028 26.8613 87.3155 25.9329 88.141 25.1928C88.9662 24.4526 90.0184 24.0823 91.2973 24.0823C92.9714 24.0823 94.2152 24.6581 95.0291 25.8096L94.1223 26.4441C93.4829 25.5746 92.5411 25.14 91.2973 25.14C90.3554 25.14 89.5825 25.4072 88.978 25.9418C88.3734 26.4763 88.0713 27.1489 88.0713 27.9597C88.0713 28.7703 88.3763 29.4429 88.9867 29.9776C89.597 30.5123 90.3673 30.7795 91.2973 30.7795C92.5761 30.7795 93.5817 30.2508 94.314 29.1934ZM97.9411 28.788H100.784L99.371 25.9682L97.9411 28.788ZM95.3081 31.6254L99.0049 24.2764H99.72L103.452 31.6254H102.231L101.289 29.7572H97.453L96.5113 31.6254H95.3081ZM104.55 24.2764H107.777C108.986 24.2764 109.948 24.623 110.662 25.3161C111.378 26.0093 111.735 26.8963 111.735 27.9774C111.735 29.0582 111.383 29.9365 110.68 30.6121C109.977 31.2878 109.009 31.6254 107.777 31.6254H104.55V24.2764ZM107.794 25.3337H105.684V30.568H107.794C108.677 30.568 109.36 30.33 109.843 29.8543C110.325 29.3784 110.567 28.7469 110.567 27.9597C110.567 27.1959 110.317 26.5674 109.817 26.0738C109.317 25.5805 108.643 25.3337 107.794 25.3337ZM113.531 31.6254V24.2764H120.35V25.3514H114.665V27.1842H118.396V28.2416H114.665V30.568H120.663V31.6254H113.531ZM122.285 31.6254V24.2764H123.227L126.209 28.5765L129.191 24.2764H130.133V31.6254H128.999V26.3383L126.209 30.4271L123.419 26.3383V31.6254H122.285ZM134.719 31.6254V27.8716L131.406 24.2764H132.87L135.277 26.8846L137.648 24.2764H139.166L135.835 27.8538V31.6254H134.719Z"/>
</mask>
<path fill-rule="evenodd" clip-rule="evenodd" d="M52 17.3536V7.85449H53.0813L56.8828 13.6703L60.7017 7.85449H61.7654V17.3536H60.6144V9.93411L56.8828 15.5559L53.151 9.93411V17.3536H52ZM68.1654 16.5078C69.1538 16.5078 69.9499 16.2376 70.5545 15.6971C71.159 15.1565 71.4613 14.4869 71.4613 13.688C71.4613 12.8891 71.159 12.2192 70.5545 11.6788C69.9499 11.1384 69.1538 10.8683 68.1654 10.8683C67.1888 10.8683 66.3984 11.1354 65.794 11.6701C65.1892 12.2045 64.8872 12.8771 64.8872 13.688C64.8872 14.4986 65.1892 15.1712 65.794 15.7059C66.3984 16.2405 67.1888 16.5078 68.1654 16.5078ZM68.1654 17.5828C66.8633 17.5828 65.7966 17.2097 64.9655 16.4636C64.1344 15.7176 63.7187 14.7924 63.7187 13.688C63.7187 12.5835 64.1314 11.6612 64.9569 10.9211C65.7821 10.1809 66.8518 9.81057 68.1654 9.81057C69.4909 9.81057 70.5661 10.1809 71.3916 10.9211C72.2171 11.6612 72.6296 12.5835 72.6296 13.688C72.6296 14.8041 72.2171 15.7323 71.3916 16.4726C70.5661 17.2127 69.4909 17.5828 68.1654 17.5828ZM75.6289 13.0711H79.5002C80.3025 13.0711 80.7037 12.7362 80.7037 12.0665C80.7037 11.4086 80.3025 11.0796 79.5002 11.0796H75.6289V13.0711ZM75.6289 14.1462V17.3536H74.4954V10.0223H79.5002C80.2443 10.0223 80.8256 10.2013 81.244 10.5597C81.6627 10.918 81.8719 11.4203 81.8719 12.0665C81.8719 12.5952 81.712 13.0477 81.3924 13.4235C81.0727 13.7995 80.6336 14.0346 80.0758 14.1285L82.0985 17.3536H80.8604L78.8029 14.1462H75.6289ZM85.1676 14.5163H88.0102L86.5974 11.6965L85.1676 14.5163ZM82.5345 17.3536L86.2313 10.0047H86.9464L90.6783 17.3536H89.4576L88.5158 15.4855H84.6794L83.7377 17.3536H82.5345ZM98.5429 14.9216L99.4497 15.5559C98.6126 16.9072 97.3049 17.5828 95.5261 17.5828C94.2472 17.5828 93.1951 17.2157 92.3699 16.4814C91.5444 15.747 91.1317 14.8218 91.1317 13.7056C91.1317 12.5896 91.5444 11.6612 92.3699 10.9211C93.1951 10.1809 94.2472 9.81057 95.5261 9.81057C97.2003 9.81057 98.4441 10.3864 99.258 11.5379L98.3512 12.1724C97.7117 11.3028 96.77 10.8683 95.5261 10.8683C94.5843 10.8683 93.8114 11.1354 93.2069 11.6701C92.6022 12.2045 92.3002 12.8771 92.3002 13.688C92.3002 14.4986 92.6052 15.1712 93.2156 15.7059C93.8259 16.2405 94.5962 16.5078 95.5261 16.5078C96.805 16.5078 97.8106 15.9791 98.5429 14.9216ZM102.501 13.9348V17.3536H101.368V10.0047H102.501V12.8597H107.611V10.0047H108.744V17.3536H107.611V13.9348H102.501ZM111.238 17.3536V10.0223H112.371V13.2825L116.225 10.0223H117.725L114.673 12.6306L118.178 17.3536H116.906L113.871 13.3003L112.371 14.5867V17.3536H111.238ZM123.323 16.5078C124.311 16.5078 125.107 16.2376 125.712 15.6971C126.316 15.1565 126.619 14.4869 126.619 13.688C126.619 12.8891 126.316 12.2192 125.712 11.6788C125.107 11.1384 124.311 10.8683 123.323 10.8683C122.346 10.8683 121.556 11.1354 120.951 11.6701C120.347 12.2045 120.045 12.8771 120.045 13.688C120.045 14.4986 120.347 15.1712 120.951 15.7059C121.556 16.2405 122.346 16.5078 123.323 16.5078ZM123.323 17.5828C122.021 17.5828 120.954 17.2097 120.123 16.4636C119.292 15.7176 118.876 14.7924 118.876 13.688C118.876 12.5835 119.289 11.6612 120.114 10.9211C120.939 10.1809 122.009 9.81057 123.323 9.81057C124.648 9.81057 125.724 10.1809 126.549 10.9211C127.375 11.6612 127.787 12.5835 127.787 13.688C127.787 14.8041 127.375 15.7323 126.549 16.4726C125.724 17.2127 124.648 17.5828 123.323 17.5828ZM132.809 17.3536H132.216L128.572 10.0047H129.775L132.513 15.5031L135.198 10.0047H136.454L132.809 17.3536ZM137.238 16.4195L137.797 15.4503C138.854 16.1671 139.965 16.5254 141.127 16.5254C141.801 16.5254 142.33 16.3902 142.714 16.12C143.098 15.8498 143.289 15.5091 143.289 15.0977C143.289 14.6748 143.106 14.3636 142.74 14.1639C142.374 13.9641 141.801 13.8523 141.022 13.8289C139.802 13.8056 138.918 13.6643 138.372 13.406C137.826 13.1476 137.552 12.648 137.552 11.9079C137.552 11.2853 137.82 10.7801 138.354 10.3924C138.889 10.0047 139.622 9.81057 140.552 9.81057C141.796 9.81057 142.97 10.1632 144.074 10.8683L143.499 11.8197C142.522 11.1735 141.534 10.8505 140.534 10.8505C139.965 10.8505 139.517 10.9475 139.191 11.1415C138.866 11.3352 138.703 11.5907 138.703 11.9079C138.703 12.2486 138.88 12.4837 139.235 12.6129C139.59 12.7422 140.168 12.8067 140.97 12.8067C143.307 12.8067 144.475 13.5938 144.475 15.1684C144.475 15.8497 144.182 16.4225 143.595 16.8867C143.008 17.3506 142.226 17.5828 141.249 17.5828C139.784 17.5828 138.448 17.195 137.238 16.4195ZM146.515 17.3536V10.0223H147.649V13.2825L151.503 10.0223H153.003L149.951 12.6306L153.456 17.3536H152.183L149.149 13.3003L147.649 14.5867V17.3536H146.515ZM160.553 17.3536V13.5999L157.24 10.0047H158.705L161.112 12.6129L163.483 10.0047H165L161.669 13.5821V17.3536H160.553ZM154.799 17.3714V9.9869H155.95V17.3714H154.799ZM79.5088 27.9597H83.6416L81.5666 23.7477L79.5088 27.9597ZM76.4746 31.6254L81.0781 22.1262H82.0546L86.7109 31.6254H85.4379L84.1649 29.0698H78.9682L77.7299 31.6254H76.4746ZM94.314 29.1934L95.2208 29.8277C94.3837 31.1789 93.076 31.8545 91.2973 31.8545C90.0184 31.8545 88.9662 31.4874 88.141 30.7531C87.3155 30.0187 86.9028 29.0935 86.9028 27.9774C86.9028 26.8613 87.3155 25.9329 88.141 25.1928C88.9662 24.4526 90.0184 24.0823 91.2973 24.0823C92.9714 24.0823 94.2152 24.6581 95.0291 25.8096L94.1223 26.4441C93.4829 25.5746 92.5411 25.14 91.2973 25.14C90.3554 25.14 89.5825 25.4072 88.978 25.9418C88.3734 26.4763 88.0713 27.1489 88.0713 27.9597C88.0713 28.7703 88.3763 29.4429 88.9867 29.9776C89.597 30.5123 90.3673 30.7795 91.2973 30.7795C92.5761 30.7795 93.5817 30.2508 94.314 29.1934ZM97.9411 28.788H100.784L99.371 25.9682L97.9411 28.788ZM95.3081 31.6254L99.0049 24.2764H99.72L103.452 31.6254H102.231L101.289 29.7572H97.453L96.5113 31.6254H95.3081ZM104.55 24.2764H107.777C108.986 24.2764 109.948 24.623 110.662 25.3161C111.378 26.0093 111.735 26.8963 111.735 27.9774C111.735 29.0582 111.383 29.9365 110.68 30.6121C109.977 31.2878 109.009 31.6254 107.777 31.6254H104.55V24.2764ZM107.794 25.3337H105.684V30.568H107.794C108.677 30.568 109.36 30.33 109.843 29.8543C110.325 29.3784 110.567 28.7469 110.567 27.9597C110.567 27.1959 110.317 26.5674 109.817 26.0738C109.317 25.5805 108.643 25.3337 107.794 25.3337ZM113.531 31.6254V24.2764H120.35V25.3514H114.665V27.1842H118.396V28.2416H114.665V30.568H120.663V31.6254H113.531ZM122.285 31.6254V24.2764H123.227L126.209 28.5765L129.191 24.2764H130.133V31.6254H128.999V26.3383L126.209 30.4271L123.419 26.3383V31.6254H122.285ZM134.719 31.6254V27.8716L131.406 24.2764H132.87L135.277 26.8846L137.648 24.2764H139.166L135.835 27.8538V31.6254H134.719Z" fill="#FDFDFD" stroke="#FDFDFD" stroke-width="2" mask="url(#path-1-inside-1_463_4523)"/>
<path fill-rule="evenodd" clip-rule="evenodd" d="M16.0274 3.71424C17.5196 3.71424 18.8789 4.28287 19.9008 5.21512V6.81987C19.0563 5.58465 17.6366 4.77388 16.0274 4.77388C13.4377 4.77388 11.3384 6.8732 11.3384 9.46285C11.3384 10.9574 12.0376 12.2885 13.1267 13.1471L12.4686 13.9777C11.1348 12.9249 10.2787 11.2939 10.2787 9.46285C10.2787 6.28801 12.8525 3.71424 16.0274 3.71424ZM19.3437 20.9167C20.8156 21.9577 21.7766 23.6732 21.7766 25.6132C21.7766 28.7884 19.2026 31.3624 16.0274 31.3624C12.8522 31.3624 10.2782 28.7884 10.2782 25.6132C10.2782 23.8921 11.0348 22.3479 12.2333 21.2943V22.8581C11.6705 23.6315 11.3384 24.5835 11.3384 25.6132C11.3384 28.2028 13.4377 30.3022 16.0274 30.3022C18.617 30.3022 20.7164 28.2028 20.7164 25.6132C20.7164 23.8617 19.7558 22.3348 18.3329 21.5297L18.3645 21.4984L11.012 15.8161L11.0113 15.8173C10.9893 15.7999 10.9675 15.7824 10.9458 15.7649L3.47351 9.98987V32.6498V33.7089H2.41439H1.05912H0V32.6498V2.97828L1.05912 3.79821L7.93946 9.12418C8.11715 4.81012 11.67 1.36719 16.0276 1.36719C17.4308 1.36719 18.7504 1.72431 19.901 2.35232V3.57883C18.7896 2.84583 17.4586 2.41866 16.0276 2.41866C12.1372 2.41866 8.98344 5.57247 8.98344 9.46285C8.98344 11.7054 10.0315 13.7031 11.6643 14.9931L11.6372 15.0274L19.344 20.9167H19.3437ZM7.99892 10.5098L1.05889 5.13751V32.6498H2.41416V9.17131V7.97952L8.61195 12.7157C8.30869 12.0254 8.099 11.2848 7.99892 10.5098ZM13.1338 13.1453L20.7748 19.0601C20.91 19.1583 21.0421 19.2607 21.1708 19.3667L21.1786 19.3728L21.1784 19.373C22.9744 20.8571 24.1191 23.1013 24.1191 25.6132C24.1191 30.0822 20.4964 33.7049 16.0274 33.7049C11.5584 33.7049 7.93567 30.0822 7.93567 25.6132C7.93567 22.5154 9.67666 19.8248 12.2333 18.465V19.6976C10.2886 20.9474 9.00038 23.1298 9.00038 25.6132C9.00038 29.4942 12.1464 32.6403 16.0274 32.6403C19.9083 32.6403 23.0544 29.4942 23.0544 25.6132C23.0544 23.2218 21.8595 21.1097 20.0346 19.8405L20.0424 19.8327L12.4757 13.9752L13.1338 13.1453ZM28.5815 32.6498V9.99343L19.9008 16.7312V15.4127L29.6406 7.97952V9.17131V32.6498H30.9958V5.13554L19.9008 13.6898V12.3524L30.9958 3.79821L32.055 2.97828V32.6498V33.7089H30.9958H29.6406H28.5815V32.6498Z" fill="#FDFDFD"/>
<path d="M167.529 0.854492C168.305 0.854492 169.048 1.16239 169.596 1.71045C170.144 2.2585 170.452 3.00183 170.452 3.77692C170.452 4.35494 170.281 4.91999 169.959 5.4006C169.638 5.88122 169.182 6.25582 168.648 6.47704C168.114 6.69825 167.526 6.75614 166.959 6.64339C166.392 6.53063 165.872 6.25229 165.463 5.84358C165.054 5.43486 164.776 4.91412 164.663 4.3472C164.55 3.78029 164.608 3.19266 164.829 2.65863C165.051 2.12461 165.425 1.66817 165.906 1.34703C166.386 1.0259 166.951 0.854492 167.529 0.854492V0.854492Z" stroke="#FDFDFD" stroke-width="0.5669"/>
<mask id="path-4-inside-2_463_4523" fill="white">
<path fill-rule="evenodd" clip-rule="evenodd" d="M165.926 5.55047V1.60547H167.674C168.026 1.60547 168.293 1.64134 168.476 1.71195C168.659 1.78276 168.805 1.90761 168.914 2.0867C169.023 2.2657 169.078 2.4641 169.078 2.68086C169.078 2.96095 168.987 3.19683 168.806 3.38879C168.625 3.58075 168.346 3.70191 167.967 3.75435C168.106 3.82042 168.211 3.88659 168.282 3.95077C168.435 4.09039 168.579 4.26579 168.714 4.47611L169.396 5.55047H168.744L168.223 4.72951C168.071 4.49173 167.945 4.31075 167.847 4.18495C167.748 4.05915 167.66 3.97188 167.582 3.92143C167.505 3.87183 167.425 3.83699 167.344 3.81674C167.285 3.80481 167.189 3.79837 167.054 3.79837H166.449V5.55047H165.926ZM166.449 3.34658H167.57C167.809 3.34658 167.994 3.32177 168.128 3.27217C168.262 3.22352 168.364 3.14458 168.433 3.03525C168.503 2.92687 168.538 2.80931 168.538 2.68171C168.538 2.49533 168.471 2.34105 168.336 2.22074C168.201 2.10043 167.988 2.0407 167.696 2.0407H166.449V3.34658Z"/>
</mask>
<path fill-rule="evenodd" clip-rule="evenodd" d="M165.926 5.55047V1.60547H167.674C168.026 1.60547 168.293 1.64134 168.476 1.71195C168.659 1.78276 168.805 1.90761 168.914 2.0867C169.023 2.2657 169.078 2.4641 169.078 2.68086C169.078 2.96095 168.987 3.19683 168.806 3.38879C168.625 3.58075 168.346 3.70191 167.967 3.75435C168.106 3.82042 168.211 3.88659 168.282 3.95077C168.435 4.09039 168.579 4.26579 168.714 4.47611L169.396 5.55047H168.744L168.223 4.72951C168.071 4.49173 167.945 4.31075 167.847 4.18495C167.748 4.05915 167.66 3.97188 167.582 3.92143C167.505 3.87183 167.425 3.83699 167.344 3.81674C167.285 3.80481 167.189 3.79837 167.054 3.79837H166.449V5.55047H165.926ZM166.449 3.34658H167.57C167.809 3.34658 167.994 3.32177 168.128 3.27217C168.262 3.22352 168.364 3.14458 168.433 3.03525C168.503 2.92687 168.538 2.80931 168.538 2.68171C168.538 2.49533 168.471 2.34105 168.336 2.22074C168.201 2.10043 167.988 2.0407 167.696 2.0407H166.449V3.34658Z" fill="#FDFDFD"/>
<path d="M165.926 5.55047H164.926V6.55047H165.926V5.55047ZM165.926 1.60547V0.605469H164.926V1.60547H165.926ZM168.476 1.71195L168.837 0.779406L168.837 0.779206L168.476 1.71195ZM168.914 2.0867L168.06 2.60742L168.061 2.60795L168.914 2.0867ZM168.806 3.38879L168.078 2.7028L168.078 2.70299L168.806 3.38879ZM167.967 3.75435L167.83 2.76382L164.525 3.22192L167.537 4.65712L167.967 3.75435ZM168.282 3.95077L168.958 3.21338L168.95 3.20586L168.282 3.95077ZM168.714 4.47611L169.558 3.93995L169.556 3.93601L168.714 4.47611ZM169.396 5.55047V6.55047H171.216L170.24 5.01431L169.396 5.55047ZM168.744 5.55047L167.9 6.08676L168.195 6.55047H168.744V5.55047ZM168.223 4.72951L169.067 4.19321L169.066 4.19205L168.223 4.72951ZM167.847 4.18495L168.635 3.5694L168.632 3.56575L167.847 4.18495ZM167.582 3.92143L168.124 3.08147L168.123 3.08028L167.582 3.92143ZM167.344 3.81674L167.587 2.84673L167.565 2.84121L167.543 2.8367L167.344 3.81674ZM166.449 3.79837V2.79837H165.449V3.79837H166.449ZM166.449 5.55047V6.55047H167.449V5.55047H166.449ZM166.449 3.34658H165.449V4.34658H166.449V3.34658ZM168.128 3.27217L167.787 2.33209L167.781 2.33433L168.128 3.27217ZM168.433 3.03525L167.592 2.49399L167.587 2.50203L168.433 3.03525ZM168.336 2.22074L167.67 2.96725L167.67 2.96748L168.336 2.22074ZM166.449 2.0407V1.0407H165.449V2.0407H166.449ZM166.926 5.55047V1.60547H164.926V5.55047H166.926ZM165.926 2.60547H167.674V0.605469H165.926V2.60547ZM167.674 2.60547C167.818 2.60547 167.927 2.61292 168.007 2.62348C168.089 2.63439 168.119 2.64611 168.116 2.6447L168.837 0.779206C168.482 0.64226 168.069 0.605469 167.674 0.605469V2.60547ZM168.115 2.6445C168.103 2.63996 168.087 2.63117 168.073 2.61861C168.059 2.60657 168.056 2.5996 168.06 2.60742L169.768 1.56598C169.553 1.21312 169.24 0.935288 168.837 0.779406L168.115 2.6445ZM168.061 2.60795C168.07 2.62275 168.078 2.63935 168.078 2.68086H170.078C170.078 2.28884 169.977 1.90865 169.768 1.56545L168.061 2.60795ZM168.078 2.68086C168.078 2.69671 168.076 2.70581 168.076 2.70938C168.075 2.71278 168.075 2.71225 168.076 2.70913C168.077 2.70595 168.079 2.70278 168.08 2.70044C168.082 2.6982 168.082 2.69902 168.078 2.7028L169.533 4.07478C169.9 3.68587 170.078 3.19989 170.078 2.68086H168.078ZM168.078 2.70299C168.111 2.66783 168.083 2.72876 167.83 2.76382L168.105 4.74488C168.608 4.67507 169.139 4.49367 169.534 4.07459L168.078 2.70299ZM167.537 4.65712C167.579 4.67682 167.605 4.6919 167.62 4.70102C167.635 4.71063 167.631 4.70971 167.615 4.69568L168.95 3.20586C168.781 3.05499 168.584 2.94059 168.397 2.85158L167.537 4.65712ZM167.607 4.68811C167.684 4.75896 167.775 4.86421 167.872 5.01622L169.556 3.93601C169.383 3.66737 169.185 3.42182 168.958 3.21343L167.607 4.68811ZM167.87 5.01227L168.552 6.08662L170.24 5.01431L169.558 3.93996L167.87 5.01227ZM169.396 4.55047H168.744V6.55047H169.396V4.55047ZM169.588 5.01417L169.067 4.19321L167.379 5.26581L167.9 6.08676L169.588 5.01417ZM169.066 4.19205C168.906 3.94051 168.761 3.73018 168.635 3.56941L167.059 4.80049C167.13 4.89131 167.237 5.04295 167.379 5.26697L169.066 4.19205ZM168.632 3.56575C168.506 3.40559 168.338 3.21934 168.124 3.08148L167.039 4.76138C167.021 4.74944 167.009 4.74007 167.004 4.73585C166.999 4.73154 166.998 4.73064 167.002 4.73462C167.011 4.74332 167.031 4.76463 167.062 4.80415L168.632 3.56575ZM168.123 3.08028C167.96 2.97577 167.78 2.89517 167.587 2.84673L167.101 4.78674C167.069 4.77882 167.049 4.76789 167.041 4.76257L168.123 3.08028ZM167.543 2.8367C167.38 2.80362 167.199 2.79837 167.054 2.79837V4.79837C167.107 4.79837 167.142 4.79967 167.163 4.80103C167.174 4.80169 167.177 4.80217 167.176 4.802C167.175 4.80191 167.164 4.8006 167.145 4.79677L167.543 2.8367ZM167.054 2.79837H166.449V4.79837H167.054V2.79837ZM165.449 3.79837V5.55047H167.449V3.79837H165.449ZM166.449 4.55047H165.926V6.55047H166.449V4.55047ZM166.449 4.34658H167.57V2.34658H166.449V4.34658ZM167.57 4.34658C167.859 4.34658 168.18 4.31908 168.475 4.21002L167.781 2.33433C167.801 2.32697 167.797 2.33132 167.756 2.33676C167.717 2.34199 167.656 2.34658 167.57 2.34658V4.34658ZM168.469 4.21224C168.788 4.09667 169.078 3.88655 169.279 3.56847L167.587 2.50203C167.615 2.45833 167.651 2.41854 167.692 2.38664C167.732 2.35548 167.767 2.33945 167.787 2.33211L168.469 4.21224ZM169.274 3.57649C169.446 3.30923 169.538 3.00423 169.538 2.68171H167.538C167.538 2.65292 167.542 2.6183 167.553 2.58155C167.564 2.54492 167.578 2.51531 167.592 2.49401L169.274 3.57649ZM169.538 2.68171C169.538 2.22372 169.359 1.79296 169.001 1.47399L167.67 2.96748C167.638 2.93861 167.599 2.8915 167.571 2.82718C167.543 2.76386 167.538 2.71048 167.538 2.68171H169.538ZM169.001 1.47422C168.599 1.1156 168.09 1.0407 167.696 1.0407V3.0407C167.735 3.0407 167.764 3.04273 167.782 3.04494C167.801 3.04717 167.807 3.04924 167.804 3.04823C167.797 3.04621 167.739 3.02847 167.67 2.96725L169.001 1.47422ZM167.696 1.0407H166.449V3.0407H167.696V1.0407ZM165.449 2.0407V3.34658H167.449V2.0407H165.449Z" fill="#FDFDFD" mask="url(#path-4-inside-2_463_4523)"/>
</svg>
