<svg width="172" height="34" viewBox="0 0 172 34" fill="none" xmlns="http://www.w3.org/2000/svg">
<mask id="path-1-inside-1_434_8318" fill="white">
<path fill-rule="evenodd" clip-rule="evenodd" d="M52.774 17.4991V8H53.8553L57.6569 13.8158L61.4757 8H62.5394V17.4991H61.3885V10.0796L57.6569 15.7014L53.925 10.0796V17.4991H52.774ZM68.9395 16.6533C69.9278 16.6533 70.7239 16.3831 71.3286 15.8426C71.933 15.302 72.2354 14.6324 72.2354 13.8335C72.2354 13.0347 71.933 12.3647 71.3286 11.8243C70.7239 11.2839 69.9278 11.0138 68.9395 11.0138C67.9629 11.0138 67.1725 11.2809 66.568 11.8156C65.9633 12.35 65.6612 13.0227 65.6612 13.8335C65.6612 14.6441 65.9633 15.3167 66.568 15.8514C67.1725 16.386 67.9629 16.6533 68.9395 16.6533ZM68.9395 17.7283C67.6374 17.7283 66.5707 17.3552 65.7396 16.6091C64.9084 15.8631 64.4928 14.9379 64.4928 13.8335C64.4928 12.729 64.9055 11.8067 65.7309 11.0666C66.5561 10.3264 67.6258 9.95607 68.9395 9.95607C70.2649 9.95607 71.3402 10.3264 72.1657 11.0666C72.9911 11.8067 73.4036 12.729 73.4036 13.8335C73.4036 14.9496 72.9911 15.8778 72.1657 16.6181C71.3402 17.3582 70.2649 17.7283 68.9395 17.7283ZM76.4029 13.2167H80.2742C81.0765 13.2167 81.4777 12.8817 81.4777 12.212C81.4777 11.5541 81.0765 11.2251 80.2742 11.2251H76.4029V13.2167ZM76.4029 14.2917V17.4991H75.2694V10.1678H80.2742C81.0184 10.1678 81.5997 10.3468 82.0181 10.7052C82.4367 11.0635 82.646 11.5658 82.646 12.212C82.646 12.7407 82.486 13.1932 82.1664 13.569C81.8468 13.945 81.4077 14.1801 80.8499 14.274L82.8726 17.4991H81.6344L79.577 14.2917H76.4029ZM85.9417 14.6618H88.7842L87.3715 11.842L85.9417 14.6618ZM83.3086 17.4991L87.0053 10.1502H87.7205L91.4523 17.4991H90.2316L89.2898 15.631H85.4535L84.5117 17.4991H83.3086ZM99.317 15.0671L100.224 15.7014C99.3867 17.0527 98.079 17.7283 96.3002 17.7283C95.0213 17.7283 93.9691 17.3612 93.1439 16.6269C92.3185 15.8925 91.9057 14.9673 91.9057 13.8511C91.9057 12.7351 92.3185 11.8067 93.1439 11.0666C93.9691 10.3264 95.0213 9.95607 96.3002 9.95607C97.9743 9.95607 99.2182 10.5319 100.032 11.6834L99.1253 12.3179C98.4858 11.4483 97.5441 11.0138 96.3002 11.0138C95.3584 11.0138 94.5854 11.2809 93.981 11.8156C93.3762 12.35 93.0742 13.0227 93.0742 13.8335C93.0742 14.6441 93.3793 15.3167 93.9896 15.8514C94.6 16.386 95.3702 16.6533 96.3002 16.6533C97.579 16.6533 98.5847 16.1246 99.317 15.0671ZM103.276 14.0803V17.4991H102.142V10.1502H103.276V13.0052H108.385V10.1502H109.518V17.4991H108.385V14.0803H103.276ZM112.012 17.4991V10.1678H113.145V13.428L117 10.1678H118.499L115.447 12.7761L118.952 17.4991H117.68L114.645 13.4458L113.145 14.7322V17.4991H112.012ZM124.097 16.6533C125.085 16.6533 125.881 16.3831 126.486 15.8426C127.09 15.302 127.393 14.6324 127.393 13.8335C127.393 13.0347 127.09 12.3647 126.486 11.8243C125.881 11.2839 125.085 11.0138 124.097 11.0138C123.12 11.0138 122.33 11.2809 121.725 11.8156C121.121 12.35 120.819 13.0227 120.819 13.8335C120.819 14.6441 121.121 15.3167 121.725 15.8514C122.33 16.386 123.12 16.6533 124.097 16.6533ZM124.097 17.7283C122.795 17.7283 121.728 17.3552 120.897 16.6091C120.066 15.8631 119.65 14.9379 119.65 13.8335C119.65 12.729 120.063 11.8067 120.888 11.0666C121.714 10.3264 122.783 9.95607 124.097 9.95607C125.422 9.95607 126.498 10.3264 127.323 11.0666C128.149 11.8067 128.561 12.729 128.561 13.8335C128.561 14.9496 128.149 15.8778 127.323 16.6181C126.498 17.3582 125.422 17.7283 124.097 17.7283ZM133.583 17.4991H132.99L129.346 10.1502H130.549L133.287 15.6486L135.972 10.1502H137.228L133.583 17.4991ZM138.013 16.5651L138.571 15.5958C139.628 16.3126 140.739 16.6709 141.901 16.6709C142.575 16.6709 143.104 16.5357 143.488 16.2655C143.872 15.9953 144.063 15.6546 144.063 15.2432C144.063 14.8203 143.88 14.5092 143.514 14.3094C143.148 14.1096 142.575 13.9978 141.797 13.9744C140.576 13.9511 139.692 13.8098 139.146 13.5516C138.6 13.2931 138.326 12.7935 138.326 12.0534C138.326 11.4309 138.594 10.9256 139.128 10.5379C139.663 10.1502 140.396 9.95607 141.326 9.95607C142.57 9.95607 143.744 10.3087 144.848 11.0138L144.273 11.9652C143.296 11.319 142.308 10.996 141.308 10.996C140.739 10.996 140.291 11.093 139.966 11.287C139.64 11.4807 139.477 11.7362 139.477 12.0534C139.477 12.3941 139.655 12.6292 140.009 12.7584C140.364 12.8877 140.942 12.9522 141.744 12.9522C144.081 12.9522 145.249 13.7393 145.249 15.3139C145.249 15.9953 144.956 16.568 144.369 17.0322C143.782 17.4962 143 17.7283 142.023 17.7283C140.558 17.7283 139.222 17.3406 138.013 16.5651ZM147.29 17.4991V10.1678H148.423V13.428L152.277 10.1678H153.777L150.725 12.7761L154.23 17.4991H152.957L149.923 13.4458L148.423 14.7322V17.4991H147.29ZM161.327 17.4991V13.7454L158.014 10.1502H159.479L161.886 12.7584L164.257 10.1502H165.774L162.443 13.7276V17.4991H161.327ZM155.573 17.5169V10.1324H156.724V17.5169H155.573ZM80.2829 28.1052H84.4156L82.3406 23.8932L80.2829 28.1052ZM77.2486 31.7709L81.8522 22.2717H82.8287L87.4849 31.7709H86.212L84.939 29.2153H79.7422L78.504 31.7709H77.2486ZM95.0881 29.3389L95.9948 29.9732C95.1578 31.3244 93.8501 32 92.0713 32C90.7924 32 89.7403 31.6329 88.915 30.8986C88.0895 30.1642 87.6769 29.239 87.6769 28.1229C87.6769 27.0068 88.0895 26.0784 88.915 25.3383C89.7403 24.5981 90.7924 24.2278 92.0713 24.2278C93.7454 24.2278 94.9893 24.8036 95.8032 25.9551L94.8964 26.5896C94.257 25.7201 93.3152 25.2855 92.0713 25.2855C91.1295 25.2855 90.3565 25.5527 89.7521 26.0873C89.1474 26.6218 88.8453 27.2944 88.8453 28.1052C88.8453 28.9158 89.1504 29.5884 89.7607 30.1231C90.3711 30.6578 91.1414 30.925 92.0713 30.925C93.3501 30.925 94.3558 30.3963 95.0881 29.3389ZM98.7152 28.9335H101.558L100.145 26.1137L98.7152 28.9335ZM96.0821 31.7709L99.7789 24.4219H100.494L104.226 31.7709H103.005L102.063 29.9027H98.227L97.2853 31.7709H96.0821ZM105.324 24.4219H108.551C109.76 24.4219 110.722 24.7685 111.437 25.4616C112.152 26.1548 112.509 27.0418 112.509 28.1229C112.509 29.2037 112.157 30.082 111.454 30.7576C110.751 31.4333 109.783 31.7709 108.551 31.7709H105.324V24.4219ZM108.568 25.4792H106.458V30.7135H108.568C109.452 30.7135 110.135 30.4755 110.617 29.9999C111.1 29.5239 111.341 28.8924 111.341 28.1052C111.341 27.3414 111.091 26.7129 110.591 26.2193C110.091 25.726 109.417 25.4792 108.568 25.4792ZM114.305 31.7709V24.4219H121.124V25.4969H115.439V27.3297H119.17V28.3871H115.439V30.7135H121.438V31.7709H114.305ZM123.059 31.7709V24.4219H124.001L126.983 28.722L129.965 24.4219H130.907V31.7709H129.773V26.4838L126.983 30.5726L124.193 26.4838V31.7709H123.059ZM135.493 31.7709V28.0171L132.18 24.4219H133.644L136.051 27.0301L138.423 24.4219H139.94L136.609 27.9993V31.7709H135.493Z"/>
</mask>
<path fill-rule="evenodd" clip-rule="evenodd" d="M52.774 17.4991V8H53.8553L57.6569 13.8158L61.4757 8H62.5394V17.4991H61.3885V10.0796L57.6569 15.7014L53.925 10.0796V17.4991H52.774ZM68.9395 16.6533C69.9278 16.6533 70.7239 16.3831 71.3286 15.8426C71.933 15.302 72.2354 14.6324 72.2354 13.8335C72.2354 13.0347 71.933 12.3647 71.3286 11.8243C70.7239 11.2839 69.9278 11.0138 68.9395 11.0138C67.9629 11.0138 67.1725 11.2809 66.568 11.8156C65.9633 12.35 65.6612 13.0227 65.6612 13.8335C65.6612 14.6441 65.9633 15.3167 66.568 15.8514C67.1725 16.386 67.9629 16.6533 68.9395 16.6533ZM68.9395 17.7283C67.6374 17.7283 66.5707 17.3552 65.7396 16.6091C64.9084 15.8631 64.4928 14.9379 64.4928 13.8335C64.4928 12.729 64.9055 11.8067 65.7309 11.0666C66.5561 10.3264 67.6258 9.95607 68.9395 9.95607C70.2649 9.95607 71.3402 10.3264 72.1657 11.0666C72.9911 11.8067 73.4036 12.729 73.4036 13.8335C73.4036 14.9496 72.9911 15.8778 72.1657 16.6181C71.3402 17.3582 70.2649 17.7283 68.9395 17.7283ZM76.4029 13.2167H80.2742C81.0765 13.2167 81.4777 12.8817 81.4777 12.212C81.4777 11.5541 81.0765 11.2251 80.2742 11.2251H76.4029V13.2167ZM76.4029 14.2917V17.4991H75.2694V10.1678H80.2742C81.0184 10.1678 81.5997 10.3468 82.0181 10.7052C82.4367 11.0635 82.646 11.5658 82.646 12.212C82.646 12.7407 82.486 13.1932 82.1664 13.569C81.8468 13.945 81.4077 14.1801 80.8499 14.274L82.8726 17.4991H81.6344L79.577 14.2917H76.4029ZM85.9417 14.6618H88.7842L87.3715 11.842L85.9417 14.6618ZM83.3086 17.4991L87.0053 10.1502H87.7205L91.4523 17.4991H90.2316L89.2898 15.631H85.4535L84.5117 17.4991H83.3086ZM99.317 15.0671L100.224 15.7014C99.3867 17.0527 98.079 17.7283 96.3002 17.7283C95.0213 17.7283 93.9691 17.3612 93.1439 16.6269C92.3185 15.8925 91.9057 14.9673 91.9057 13.8511C91.9057 12.7351 92.3185 11.8067 93.1439 11.0666C93.9691 10.3264 95.0213 9.95607 96.3002 9.95607C97.9743 9.95607 99.2182 10.5319 100.032 11.6834L99.1253 12.3179C98.4858 11.4483 97.5441 11.0138 96.3002 11.0138C95.3584 11.0138 94.5854 11.2809 93.981 11.8156C93.3762 12.35 93.0742 13.0227 93.0742 13.8335C93.0742 14.6441 93.3793 15.3167 93.9896 15.8514C94.6 16.386 95.3702 16.6533 96.3002 16.6533C97.579 16.6533 98.5847 16.1246 99.317 15.0671ZM103.276 14.0803V17.4991H102.142V10.1502H103.276V13.0052H108.385V10.1502H109.518V17.4991H108.385V14.0803H103.276ZM112.012 17.4991V10.1678H113.145V13.428L117 10.1678H118.499L115.447 12.7761L118.952 17.4991H117.68L114.645 13.4458L113.145 14.7322V17.4991H112.012ZM124.097 16.6533C125.085 16.6533 125.881 16.3831 126.486 15.8426C127.09 15.302 127.393 14.6324 127.393 13.8335C127.393 13.0347 127.09 12.3647 126.486 11.8243C125.881 11.2839 125.085 11.0138 124.097 11.0138C123.12 11.0138 122.33 11.2809 121.725 11.8156C121.121 12.35 120.819 13.0227 120.819 13.8335C120.819 14.6441 121.121 15.3167 121.725 15.8514C122.33 16.386 123.12 16.6533 124.097 16.6533ZM124.097 17.7283C122.795 17.7283 121.728 17.3552 120.897 16.6091C120.066 15.8631 119.65 14.9379 119.65 13.8335C119.65 12.729 120.063 11.8067 120.888 11.0666C121.714 10.3264 122.783 9.95607 124.097 9.95607C125.422 9.95607 126.498 10.3264 127.323 11.0666C128.149 11.8067 128.561 12.729 128.561 13.8335C128.561 14.9496 128.149 15.8778 127.323 16.6181C126.498 17.3582 125.422 17.7283 124.097 17.7283ZM133.583 17.4991H132.99L129.346 10.1502H130.549L133.287 15.6486L135.972 10.1502H137.228L133.583 17.4991ZM138.013 16.5651L138.571 15.5958C139.628 16.3126 140.739 16.6709 141.901 16.6709C142.575 16.6709 143.104 16.5357 143.488 16.2655C143.872 15.9953 144.063 15.6546 144.063 15.2432C144.063 14.8203 143.88 14.5092 143.514 14.3094C143.148 14.1096 142.575 13.9978 141.797 13.9744C140.576 13.9511 139.692 13.8098 139.146 13.5516C138.6 13.2931 138.326 12.7935 138.326 12.0534C138.326 11.4309 138.594 10.9256 139.128 10.5379C139.663 10.1502 140.396 9.95607 141.326 9.95607C142.57 9.95607 143.744 10.3087 144.848 11.0138L144.273 11.9652C143.296 11.319 142.308 10.996 141.308 10.996C140.739 10.996 140.291 11.093 139.966 11.287C139.64 11.4807 139.477 11.7362 139.477 12.0534C139.477 12.3941 139.655 12.6292 140.009 12.7584C140.364 12.8877 140.942 12.9522 141.744 12.9522C144.081 12.9522 145.249 13.7393 145.249 15.3139C145.249 15.9953 144.956 16.568 144.369 17.0322C143.782 17.4962 143 17.7283 142.023 17.7283C140.558 17.7283 139.222 17.3406 138.013 16.5651ZM147.29 17.4991V10.1678H148.423V13.428L152.277 10.1678H153.777L150.725 12.7761L154.23 17.4991H152.957L149.923 13.4458L148.423 14.7322V17.4991H147.29ZM161.327 17.4991V13.7454L158.014 10.1502H159.479L161.886 12.7584L164.257 10.1502H165.774L162.443 13.7276V17.4991H161.327ZM155.573 17.5169V10.1324H156.724V17.5169H155.573ZM80.2829 28.1052H84.4156L82.3406 23.8932L80.2829 28.1052ZM77.2486 31.7709L81.8522 22.2717H82.8287L87.4849 31.7709H86.212L84.939 29.2153H79.7422L78.504 31.7709H77.2486ZM95.0881 29.3389L95.9948 29.9732C95.1578 31.3244 93.8501 32 92.0713 32C90.7924 32 89.7403 31.6329 88.915 30.8986C88.0895 30.1642 87.6769 29.239 87.6769 28.1229C87.6769 27.0068 88.0895 26.0784 88.915 25.3383C89.7403 24.5981 90.7924 24.2278 92.0713 24.2278C93.7454 24.2278 94.9893 24.8036 95.8032 25.9551L94.8964 26.5896C94.257 25.7201 93.3152 25.2855 92.0713 25.2855C91.1295 25.2855 90.3565 25.5527 89.7521 26.0873C89.1474 26.6218 88.8453 27.2944 88.8453 28.1052C88.8453 28.9158 89.1504 29.5884 89.7607 30.1231C90.3711 30.6578 91.1414 30.925 92.0713 30.925C93.3501 30.925 94.3558 30.3963 95.0881 29.3389ZM98.7152 28.9335H101.558L100.145 26.1137L98.7152 28.9335ZM96.0821 31.7709L99.7789 24.4219H100.494L104.226 31.7709H103.005L102.063 29.9027H98.227L97.2853 31.7709H96.0821ZM105.324 24.4219H108.551C109.76 24.4219 110.722 24.7685 111.437 25.4616C112.152 26.1548 112.509 27.0418 112.509 28.1229C112.509 29.2037 112.157 30.082 111.454 30.7576C110.751 31.4333 109.783 31.7709 108.551 31.7709H105.324V24.4219ZM108.568 25.4792H106.458V30.7135H108.568C109.452 30.7135 110.135 30.4755 110.617 29.9999C111.1 29.5239 111.341 28.8924 111.341 28.1052C111.341 27.3414 111.091 26.7129 110.591 26.2193C110.091 25.726 109.417 25.4792 108.568 25.4792ZM114.305 31.7709V24.4219H121.124V25.4969H115.439V27.3297H119.17V28.3871H115.439V30.7135H121.438V31.7709H114.305ZM123.059 31.7709V24.4219H124.001L126.983 28.722L129.965 24.4219H130.907V31.7709H129.773V26.4838L126.983 30.5726L124.193 26.4838V31.7709H123.059ZM135.493 31.7709V28.0171L132.18 24.4219H133.644L136.051 27.0301L138.423 24.4219H139.94L136.609 27.9993V31.7709H135.493Z" fill="#1A1A1A" stroke="#1A1A1A" stroke-width="2" mask="url(#path-1-inside-1_434_8318)"/>
<path fill-rule="evenodd" clip-rule="evenodd" d="M16.8014 3.85975C18.2936 3.85975 19.653 4.42838 20.6748 5.36063V6.96537C19.8304 5.73016 18.4106 4.91939 16.8014 4.91939C14.2118 4.91939 12.1125 7.01871 12.1125 9.60836C12.1125 11.1029 12.8117 12.434 13.9007 13.2926L13.2426 14.1232C11.9088 13.0704 11.0528 11.4394 11.0528 9.60836C11.0528 6.43351 13.6265 3.85975 16.8014 3.85975ZM20.1177 21.0622C21.5897 22.1033 22.5507 23.8187 22.5507 25.7587C22.5507 28.9339 19.9767 31.5079 16.8014 31.5079C13.6262 31.5079 11.0522 28.9339 11.0522 25.7587C11.0522 24.0376 11.8088 22.4934 13.0073 21.4398V23.0036C12.4446 23.777 12.1125 24.729 12.1125 25.7587C12.1125 28.3483 14.2118 30.4477 16.8014 30.4477C19.3911 30.4477 21.4904 28.3483 21.4904 25.7587C21.4904 24.0072 20.5299 22.4803 19.107 21.6753L19.1385 21.6439L11.7861 15.9616L11.7853 15.9628C11.7634 15.9454 11.7416 15.9279 11.7199 15.9104L4.24756 10.1354V32.7953V33.8544H3.18843H1.83317H0.774048V32.7953V3.12379L1.83317 3.94371L8.7135 9.26969C8.89119 4.95563 12.444 1.5127 16.8017 1.5127C18.2048 1.5127 19.5245 1.86982 20.675 2.49783V3.72434C19.5637 2.99134 18.2327 2.56417 16.8017 2.56417C12.9112 2.56417 9.75748 5.71798 9.75748 9.60836C9.75748 11.8509 10.8056 13.8486 12.4384 15.1386L12.4113 15.1729L20.118 21.0622H20.1177ZM8.77297 10.6553L1.83294 5.28302V32.7953H3.1882V9.31682V8.12502L9.386 12.8612C9.08273 12.1709 8.87305 11.4304 8.77297 10.6553ZM13.9079 13.2908L21.5488 19.2057C21.6841 19.3038 21.8161 19.4062 21.9449 19.5122L21.9526 19.5183L21.9525 19.5185C23.7484 21.0026 24.8932 23.2468 24.8932 25.7587C24.8932 30.2277 21.2704 33.8504 16.8014 33.8504C12.3325 33.8504 8.70972 30.2277 8.70972 25.7587C8.70972 22.6609 10.4507 19.9703 13.0073 18.6105V19.8431C11.0627 21.0929 9.77443 23.2753 9.77443 25.7587C9.77443 29.6397 12.9204 32.7858 16.8014 32.7858C20.6824 32.7858 23.8285 29.6397 23.8285 25.7587C23.8285 23.3673 22.6336 21.2552 20.8086 19.986L20.8165 19.9782L13.2497 14.1207L13.9079 13.2908ZM29.3555 32.7953V10.1389L20.6748 16.8768V15.5582L30.4146 8.12502V9.31682V32.7953H31.7698V5.28105L20.6748 13.8353V12.4979L31.7698 3.94371L32.829 3.12379V32.7953V33.8544H31.7698H30.4146H29.3555V32.7953Z" fill="#41F90F"/>
<path d="M168.303 1C169.079 1 169.822 1.3079 170.37 1.85595C170.918 2.40401 171.226 3.14734 171.226 3.92242C171.226 4.50045 171.055 5.06549 170.734 5.54611C170.412 6.02673 169.956 6.40133 169.422 6.62254C168.888 6.84376 168.3 6.90165 167.733 6.7889C167.166 6.67614 166.646 6.3978 166.237 5.98908C165.828 5.58037 165.55 5.05962 165.437 4.49271C165.324 3.92579 165.382 3.33817 165.603 2.80414C165.825 2.27012 166.199 1.81368 166.68 1.49254C167.16 1.17141 167.725 1 168.303 1V1Z" stroke="#1A1A1A" stroke-width="0.5669"/>
<mask id="path-4-inside-2_434_8318" fill="white">
<path fill-rule="evenodd" clip-rule="evenodd" d="M166.7 5.69597V1.75098H168.448C168.8 1.75098 169.067 1.78685 169.25 1.85746C169.433 1.92826 169.579 2.05312 169.688 2.23221C169.798 2.41121 169.852 2.60961 169.852 2.82637C169.852 3.10646 169.761 3.34234 169.58 3.5343C169.399 3.72626 169.12 3.84742 168.741 3.89986C168.88 3.96593 168.985 4.0321 169.056 4.09628C169.209 4.2359 169.353 4.41129 169.488 4.62162L170.17 5.69597H169.518L168.997 4.87502C168.845 4.63724 168.719 4.45625 168.621 4.33046C168.522 4.20466 168.434 4.11739 168.356 4.06694C168.279 4.01734 168.199 3.9825 168.118 3.96224C168.059 3.95032 167.963 3.94388 167.828 3.94388H167.224V5.69597H166.7ZM167.224 3.49209H168.344C168.583 3.49209 168.768 3.46728 168.902 3.41768C169.036 3.36903 169.138 3.29009 169.207 3.18076C169.277 3.07238 169.312 2.95482 169.312 2.82722C169.312 2.64084 169.245 2.48655 169.11 2.36624C168.975 2.24594 168.762 2.18621 168.471 2.18621H167.224V3.49209Z"/>
</mask>
<path fill-rule="evenodd" clip-rule="evenodd" d="M166.7 5.69597V1.75098H168.448C168.8 1.75098 169.067 1.78685 169.25 1.85746C169.433 1.92826 169.579 2.05312 169.688 2.23221C169.798 2.41121 169.852 2.60961 169.852 2.82637C169.852 3.10646 169.761 3.34234 169.58 3.5343C169.399 3.72626 169.12 3.84742 168.741 3.89986C168.88 3.96593 168.985 4.0321 169.056 4.09628C169.209 4.2359 169.353 4.41129 169.488 4.62162L170.17 5.69597H169.518L168.997 4.87502C168.845 4.63724 168.719 4.45625 168.621 4.33046C168.522 4.20466 168.434 4.11739 168.356 4.06694C168.279 4.01734 168.199 3.9825 168.118 3.96224C168.059 3.95032 167.963 3.94388 167.828 3.94388H167.224V5.69597H166.7ZM167.224 3.49209H168.344C168.583 3.49209 168.768 3.46728 168.902 3.41768C169.036 3.36903 169.138 3.29009 169.207 3.18076C169.277 3.07238 169.312 2.95482 169.312 2.82722C169.312 2.64084 169.245 2.48655 169.11 2.36624C168.975 2.24594 168.762 2.18621 168.471 2.18621H167.224V3.49209Z" fill="#1A1A1A"/>
<path d="M166.7 5.69597H165.7V6.69597H166.7V5.69597ZM166.7 1.75098V0.750977H165.7V1.75098H166.7ZM169.25 1.85746L169.611 0.924913L169.611 0.924714L169.25 1.85746ZM169.688 2.23221L168.834 2.75293L168.835 2.75346L169.688 2.23221ZM169.58 3.5343L168.852 2.84831L168.852 2.8485L169.58 3.5343ZM168.741 3.89986L168.604 2.90933L165.299 3.36743L168.311 4.80263L168.741 3.89986ZM169.056 4.09628L169.732 3.35889L169.724 3.35137L169.056 4.09628ZM169.488 4.62162L170.332 4.08546L170.33 4.08151L169.488 4.62162ZM170.17 5.69597V6.69597H171.99L171.014 5.15982L170.17 5.69597ZM169.518 5.69597L168.674 6.23227L168.969 6.69597H169.518V5.69597ZM168.997 4.87502L169.841 4.33872L169.84 4.33755L168.997 4.87502ZM168.621 4.33046L169.409 3.71491L169.406 3.71125L168.621 4.33046ZM168.356 4.06694L168.898 3.22698L168.897 3.22579L168.356 4.06694ZM168.118 3.96224L168.361 2.99223L168.339 2.98672L168.317 2.98221L168.118 3.96224ZM167.224 3.94388V2.94388H166.224V3.94388H167.224ZM167.224 5.69597V6.69597H168.224V5.69597H167.224ZM167.224 3.49209H166.224V4.49209H167.224V3.49209ZM168.902 3.41768L168.561 2.4776L168.555 2.47984L168.902 3.41768ZM169.207 3.18076L168.366 2.6395L168.361 2.64754L169.207 3.18076ZM169.11 2.36624L168.444 3.11276L168.445 3.11299L169.11 2.36624ZM167.224 2.18621V1.18621H166.224V2.18621H167.224ZM167.7 5.69597V1.75098H165.7V5.69597H167.7ZM166.7 2.75098H168.448V0.750977H166.7V2.75098ZM168.448 2.75098C168.592 2.75098 168.701 2.75843 168.781 2.76899C168.863 2.7799 168.893 2.79161 168.89 2.79021L169.611 0.924714C169.256 0.787768 168.843 0.750977 168.448 0.750977V2.75098ZM168.889 2.79001C168.877 2.78547 168.861 2.77668 168.847 2.76412C168.833 2.75208 168.83 2.74511 168.834 2.75293L170.542 1.71149C170.327 1.35863 170.014 1.0808 169.611 0.924914L168.889 2.79001ZM168.835 2.75346C168.844 2.76826 168.852 2.78486 168.852 2.82637H170.852C170.852 2.43435 170.751 2.05415 170.542 1.71096L168.835 2.75346ZM168.852 2.82637C168.852 2.84222 168.85 2.85132 168.85 2.85489C168.849 2.85828 168.849 2.85776 168.85 2.85464C168.851 2.85145 168.853 2.84828 168.855 2.84595C168.856 2.84371 168.856 2.84453 168.852 2.84831L170.307 4.22029C170.674 3.83137 170.852 3.34539 170.852 2.82637H168.852ZM168.852 2.8485C168.885 2.81334 168.857 2.87427 168.604 2.90933L168.879 4.89039C169.382 4.82057 169.913 4.63918 170.308 4.2201L168.852 2.8485ZM168.311 4.80263C168.353 4.82233 168.379 4.83741 168.394 4.84653C168.409 4.85614 168.405 4.85522 168.389 4.84118L169.724 3.35137C169.555 3.2005 169.358 3.0861 169.172 2.99709L168.311 4.80263ZM168.381 4.83362C168.458 4.90446 168.549 5.00972 168.646 5.16173L170.33 4.08151C170.157 3.81287 169.959 3.56733 169.732 3.35893L168.381 4.83362ZM168.644 5.15778L169.326 6.23213L171.014 5.15982L170.332 4.08546L168.644 5.15778ZM170.17 4.69597H169.518V6.69597H170.17V4.69597ZM170.362 5.15968L169.841 4.33872L168.153 5.41132L168.674 6.23227L170.362 5.15968ZM169.84 4.33755C169.68 4.08602 169.535 3.87569 169.409 3.71492L167.833 4.946C167.904 5.03682 168.011 5.18846 168.153 5.41248L169.84 4.33755ZM169.406 3.71125C169.28 3.5511 169.112 3.36484 168.898 3.22698L167.813 4.90689C167.795 4.89495 167.783 4.88558 167.778 4.88136C167.773 4.87705 167.772 4.87614 167.776 4.88012C167.785 4.88883 167.805 4.91014 167.836 4.94966L169.406 3.71125ZM168.897 3.22579C168.734 3.12127 168.554 3.04067 168.361 2.99223L167.875 4.93225C167.843 4.92432 167.823 4.9134 167.815 4.90808L168.897 3.22579ZM168.317 2.98221C168.154 2.94913 167.973 2.94388 167.828 2.94388V4.94388C167.881 4.94388 167.916 4.94518 167.937 4.94654C167.948 4.94719 167.951 4.94768 167.95 4.94751C167.949 4.94742 167.938 4.94611 167.919 4.94227L168.317 2.98221ZM167.828 2.94388H167.224V4.94388H167.828V2.94388ZM166.224 3.94388V5.69597H168.224V3.94388H166.224ZM167.224 4.69597H166.7V6.69597H167.224V4.69597ZM167.224 4.49209H168.344V2.49209H167.224V4.49209ZM168.344 4.49209C168.633 4.49209 168.954 4.46459 169.249 4.35553L168.555 2.47984C168.575 2.47248 168.571 2.47683 168.53 2.48226C168.491 2.4875 168.43 2.49209 168.344 2.49209V4.49209ZM169.243 4.35775C169.562 4.24217 169.853 4.03206 170.053 3.71398L168.361 2.64754C168.389 2.60384 168.425 2.56405 168.466 2.53214C168.506 2.50099 168.541 2.48495 168.561 2.47762L169.243 4.35775ZM170.048 3.722C170.22 3.45474 170.312 3.14974 170.312 2.82722H168.312C168.312 2.79842 168.316 2.7638 168.327 2.72706C168.338 2.69043 168.352 2.66082 168.366 2.63952L170.048 3.722ZM170.312 2.82722C170.312 2.36922 170.133 1.93846 169.775 1.6195L168.445 3.11299C168.412 3.08412 168.373 3.03701 168.345 2.97269C168.317 2.90937 168.312 2.85599 168.312 2.82722H170.312ZM169.775 1.61973C169.373 1.26111 168.864 1.18621 168.471 1.18621V3.18621C168.51 3.18621 168.538 3.18823 168.556 3.19045C168.575 3.19267 168.581 3.19474 168.578 3.19374C168.571 3.19172 168.513 3.17398 168.444 3.11276L169.775 1.61973ZM168.471 1.18621H167.224V3.18621H168.471V1.18621ZM166.224 2.18621V3.49209H168.224V2.18621H166.224Z" fill="#1A1A1A" mask="url(#path-4-inside-2_434_8318)"/>
</svg>
