<svg width="32" height="33" viewBox="0 0 32 33" fill="none" xmlns="http://www.w3.org/2000/svg">
<path fill-rule="evenodd" clip-rule="evenodd" d="M0 16.8545C0 25.691 7.16344 32.8545 16 32.8545C24.8366 32.8545 32 25.691 32 16.8545C32 8.01794 24.8366 0.854492 16 0.854492C7.16344 0.854492 0 8.01794 0 16.8545ZM26.0414 16.2421C26.0393 21.4866 21.773 25.754 16.5274 25.7561H16.5235C14.9312 25.7556 13.3666 25.3561 11.9769 24.5981L6.93335 25.9211L8.28309 20.991C7.45051 19.5481 7.0124 17.9115 7.01312 16.2346C7.0152 10.9889 11.2832 6.72113 16.5273 6.72113C19.0724 6.72223 21.4612 7.71304 23.2575 9.5114C25.0537 11.3097 26.0425 13.7 26.0414 16.2421Z" fill="#23A600"/>
<path fill-rule="evenodd" clip-rule="evenodd" d="M9.21735 23.6609L12.2103 22.8758L12.499 23.0471C13.7131 23.7676 15.1049 24.1488 16.5239 24.1494H16.5271C20.8856 24.1494 24.433 20.6019 24.4347 16.2416C24.4355 14.1286 23.6138 12.1419 22.1208 10.6472C20.6278 9.15243 18.6423 8.32886 16.5302 8.32812C12.1683 8.32812 8.62087 11.8752 8.61914 16.2352C8.61853 17.7294 9.0366 19.1846 9.82818 20.4436L10.0162 20.7428L9.21735 23.6609ZM20.9946 18.2905C21.1604 18.3707 21.2724 18.4248 21.3202 18.5046C21.3796 18.6037 21.3796 19.0797 21.1816 19.6351C20.9834 20.1904 20.0337 20.6972 19.5769 20.7654C19.1674 20.8266 18.6491 20.8522 18.0797 20.6712C17.7344 20.5616 17.2916 20.4154 16.7244 20.1704C14.4958 19.2081 12.9897 17.0481 12.7051 16.6399C12.6851 16.6113 12.6712 16.5913 12.6634 16.5809L12.6615 16.5783C12.5357 16.4104 11.6927 15.2857 11.6927 14.1217C11.6927 13.0267 12.2306 12.4527 12.4782 12.1885C12.4951 12.1704 12.5107 12.1538 12.5247 12.1385C12.7426 11.9005 13.0002 11.841 13.1587 11.841C13.3171 11.841 13.4758 11.8425 13.6143 11.8494C13.6314 11.8503 13.6491 11.8502 13.6675 11.8501C13.8061 11.8493 13.9788 11.8482 14.1491 12.2575C14.2147 12.415 14.3106 12.6485 14.4118 12.8948C14.6163 13.3928 14.8423 13.943 14.8821 14.0226C14.9415 14.1416 14.9811 14.2804 14.9019 14.4391C14.89 14.4629 14.879 14.4854 14.8685 14.5069C14.809 14.6284 14.7652 14.7177 14.6642 14.8357C14.6245 14.8821 14.5834 14.9321 14.5424 14.9821C14.4606 15.0817 14.3788 15.1812 14.3076 15.2522C14.1886 15.3707 14.0647 15.4993 14.2034 15.7373C14.342 15.9753 14.8191 16.7538 15.5259 17.3842C16.2855 18.0618 16.9458 18.3482 17.2805 18.4933C17.3458 18.5217 17.3988 18.5446 17.4376 18.5641C17.6752 18.6831 17.8139 18.6632 17.9526 18.5046C18.0913 18.3459 18.5469 17.8104 18.7053 17.5725C18.8638 17.3345 19.0223 17.3742 19.2402 17.4535C19.4581 17.5329 20.6269 18.1079 20.8646 18.2269C20.911 18.2501 20.9544 18.2711 20.9946 18.2905Z" fill="#23A600"/>
</svg>
