<svg width="32" height="33" viewBox="0 0 32 33" fill="none" xmlns="http://www.w3.org/2000/svg">
<path fill-rule="evenodd" clip-rule="evenodd" d="M0 16.8545C0 25.691 7.16344 32.8545 16 32.8545C24.8366 32.8545 32 25.691 32 16.8545C32 8.01794 24.8366 0.854492 16 0.854492C7.16344 0.854492 0 8.01794 0 16.8545ZM13.0667 24.1878L13.3389 20.1093L13.3387 20.1092L20.758 13.4138C21.0836 13.1248 20.6868 12.9839 20.2546 13.246L11.0982 19.0227L7.14312 17.7883C6.289 17.5267 6.28287 16.9398 7.33488 16.5179L22.7469 10.5751C23.4508 10.2555 24.1302 10.7441 23.8615 11.8215L21.2368 24.1899C21.0535 25.0688 20.5225 25.279 19.7867 24.873L15.7885 21.9191L13.8667 23.7878C13.8606 23.7937 13.8546 23.7996 13.8486 23.8054C13.6336 24.0147 13.4558 24.1878 13.0667 24.1878Z" fill="#23A600"/>
</svg>
