<svg width="32" height="33" viewBox="0 0 32 33" fill="none" xmlns="http://www.w3.org/2000/svg">
<path fill-rule="evenodd" clip-rule="evenodd" d="M0 16.709C0 25.5455 7.16344 32.709 16 32.709C24.8366 32.709 32 25.5455 32 16.709C32 7.87243 24.8366 0.708984 16 0.708984C7.16344 0.708984 0 7.87243 0 16.709ZM26.0414 16.0966C26.0393 21.3411 21.773 25.6085 16.5274 25.6106H16.5235C14.9312 25.6101 13.3666 25.2106 11.9769 24.4526L6.93335 25.7756L8.28309 20.8455C7.45051 19.4026 7.0124 17.7659 7.01312 16.0891C7.0152 10.8434 11.2832 6.57562 16.5273 6.57562C19.0724 6.57672 21.4612 7.56753 23.2575 9.3659C25.0537 11.1642 26.0425 13.5545 26.0414 16.0966Z" fill="#FDFDFD"/>
<path fill-rule="evenodd" clip-rule="evenodd" d="M9.21771 23.5154L12.2106 22.7302L12.4994 22.9016C13.7135 23.6221 15.1053 24.0033 16.5242 24.0039H16.5274C20.886 24.0039 24.4333 20.4564 24.4351 16.0961C24.4359 13.9831 23.6142 11.9964 22.1212 10.5017C20.6282 9.00692 18.6427 8.18335 16.5306 8.18262C12.1687 8.18262 8.62124 11.7297 8.61951 16.0897C8.61889 17.5839 9.03697 19.0391 9.82855 20.2981L10.0166 20.5973L9.21771 23.5154ZM20.995 18.145C21.1608 18.2252 21.2728 18.2793 21.3206 18.3591C21.38 18.4582 21.38 18.9342 21.182 19.4896C20.9838 20.0448 20.0341 20.5517 19.5773 20.6199C19.1678 20.6811 18.6495 20.7067 18.08 20.5257C17.7347 20.4161 17.292 20.2699 16.7248 20.0249C14.4962 19.0626 12.9901 16.9026 12.7054 16.4943C12.6855 16.4657 12.6715 16.4457 12.6638 16.4354L12.6618 16.4328C12.536 16.2649 11.6931 15.1402 11.6931 13.9762C11.6931 12.8812 12.231 12.3072 12.4786 12.043C12.4955 12.0249 12.5111 12.0083 12.5251 11.993C12.743 11.755 13.0005 11.6955 13.159 11.6955C13.3175 11.6955 13.4761 11.697 13.6146 11.7039C13.6317 11.7048 13.6495 11.7047 13.6679 11.7046C13.8064 11.7038 13.9791 11.7027 14.1495 12.112C14.2151 12.2695 14.311 12.503 14.4121 12.7493C14.6167 13.2473 14.8427 13.7975 14.8825 13.8771C14.9419 13.9961 14.9815 14.1349 14.9023 14.2936C14.8904 14.3174 14.8794 14.3399 14.8689 14.3613C14.8094 14.4829 14.7656 14.5722 14.6646 14.6902C14.6248 14.7366 14.5838 14.7866 14.5427 14.8365C14.4609 14.9361 14.3792 15.0357 14.308 15.1067C14.189 15.2252 14.0651 15.3538 14.2037 15.5918C14.3424 15.8298 14.8195 16.6083 15.5262 17.2386C16.2859 17.9163 16.9462 18.2027 17.2808 18.3478C17.3462 18.3762 17.3991 18.3991 17.438 18.4186C17.6756 18.5376 17.8143 18.5177 17.953 18.3591C18.0916 18.2004 18.5472 17.6649 18.7057 17.4269C18.8641 17.189 19.0227 17.2287 19.2405 17.308C19.4585 17.3874 20.6273 17.9624 20.865 18.0814C20.9114 18.1046 20.9548 18.1256 20.995 18.145Z" fill="#FDFDFD"/>
</svg>
