<svg width="32" height="33" viewBox="0 0 32 33" fill="none" xmlns="http://www.w3.org/2000/svg">
<path fill-rule="evenodd" clip-rule="evenodd" d="M16 0.708984C7.16344 0.708984 0 7.87243 0 16.709C0 25.5455 7.16344 32.709 16 32.709C24.8366 32.709 32 25.5455 32 16.709C32 7.87243 24.8366 0.708984 16 0.708984ZM12.4821 8.22714C13.3924 8.18572 13.6832 8.17559 16.0007 8.17559H15.9981C18.3163 8.17559 18.6061 8.18572 19.5163 8.22714C20.4248 8.26874 21.0452 8.41257 21.5892 8.62359C22.151 8.84137 22.6257 9.13293 23.1004 9.6076C23.575 10.0819 23.8666 10.558 24.0853 11.1193C24.295 11.6618 24.439 12.2819 24.4817 13.1904C24.5226 14.1006 24.5333 14.3915 24.5333 16.709C24.5333 19.0265 24.5226 19.3167 24.4817 20.2269C24.439 21.135 24.295 21.7553 24.0853 22.298C23.8666 22.8591 23.575 23.3352 23.1004 23.8095C22.6262 24.2842 22.1508 24.5765 21.5898 24.7944C21.0468 25.0055 20.426 25.1493 19.5176 25.1909C18.6073 25.2323 18.3174 25.2424 15.9997 25.2424C13.6823 25.2424 13.3916 25.2323 12.4814 25.1909C11.5731 25.1493 10.9529 25.0055 10.4099 24.7944C9.84903 24.5765 9.37293 24.2842 8.89879 23.8095C8.4243 23.3352 8.13274 22.8591 7.91461 22.2979C7.70376 21.7553 7.55994 21.1352 7.51816 20.2267C7.47691 19.3165 7.4666 19.0265 7.4666 16.709C7.4666 14.3915 7.47727 14.1004 7.51798 13.1902C7.55887 12.2821 7.70287 11.6618 7.91443 11.1191C8.1331 10.558 8.42465 10.0819 8.89933 9.6076C9.37364 9.13311 9.84974 8.84155 10.411 8.62359C10.9536 8.41257 11.5737 8.26874 12.4821 8.22714ZM16 13.1534C17.9636 13.1534 19.5556 14.7452 19.5556 16.709C19.5556 18.6725 17.9636 20.2645 16 20.2645C14.0362 20.2645 12.4444 18.6725 12.4444 16.709C12.4444 14.7452 14.0362 13.1534 16 13.1534ZM21.3333 12.2645C21.3333 11.7736 20.9353 11.3757 20.4444 11.3757C19.9535 11.3757 19.5556 11.7736 19.5556 12.2645C19.5556 12.7554 19.9535 13.1534 20.4444 13.1534C20.9353 13.1534 21.3333 12.7554 21.3333 12.2645Z" fill="#FDFDFD"/>
</svg>
