<svg width="32" height="33" viewBox="0 0 32 33" fill="none" xmlns="http://www.w3.org/2000/svg">
<path fill-rule="evenodd" clip-rule="evenodd" d="M16 0.854492C7.16344 0.854492 0 8.01794 0 16.8545C0 25.691 7.16344 32.8545 16 32.8545C24.8366 32.8545 32 25.691 32 16.8545C32 8.01794 24.8366 0.854492 16 0.854492ZM12.4821 8.37265C13.3924 8.33123 13.6832 8.32109 16.0007 8.32109H15.9981C18.3163 8.32109 18.6061 8.33123 19.5163 8.37265C20.4248 8.41425 21.0452 8.55807 21.5892 8.7691C22.151 8.98688 22.6257 9.27844 23.1004 9.75311C23.575 10.2274 23.8666 10.7035 24.0853 11.2648C24.295 11.8074 24.439 12.4274 24.4817 13.3359C24.5226 14.2461 24.5333 14.537 24.5333 16.8545C24.5333 19.1721 24.5226 19.4622 24.4817 20.3724C24.439 21.2805 24.295 21.9008 24.0853 22.4436C23.8666 23.0046 23.575 23.4807 23.1004 23.955C22.6262 24.4297 22.1508 24.722 21.5898 24.9399C21.0468 25.151 20.426 25.2948 19.5176 25.3364C18.6073 25.3778 18.3174 25.3879 15.9997 25.3879C13.6823 25.3879 13.3916 25.3778 12.4814 25.3364C11.5731 25.2948 10.9529 25.151 10.4099 24.9399C9.84903 24.722 9.37293 24.4297 8.89879 23.955C8.4243 23.4807 8.13274 23.0046 7.91461 22.4434C7.70376 21.9008 7.55994 21.2807 7.51816 20.3722C7.47691 19.462 7.4666 19.1721 7.4666 16.8545C7.4666 14.537 7.47727 14.246 7.51798 13.3357C7.55887 12.4276 7.70287 11.8074 7.91443 11.2646C8.1331 10.7035 8.42465 10.2274 8.89933 9.75311C9.37364 9.27861 9.84974 8.98706 10.411 8.7691C10.9536 8.55807 11.5737 8.41425 12.4821 8.37265ZM16 13.2989C17.9636 13.2989 19.5556 14.8907 19.5556 16.8545C19.5556 18.818 17.9636 20.41 16 20.41C14.0362 20.41 12.4444 18.818 12.4444 16.8545C12.4444 14.8907 14.0362 13.2989 16 13.2989ZM21.3333 12.41C21.3333 11.9191 20.9353 11.5212 20.4444 11.5212C19.9535 11.5212 19.5556 11.9191 19.5556 12.41C19.5556 12.9009 19.9535 13.2989 20.4444 13.2989C20.9353 13.2989 21.3333 12.9009 21.3333 12.41Z" fill="#23A600"/>
</svg>
