<svg width="32" height="33" viewBox="0 0 32 33" fill="none" xmlns="http://www.w3.org/2000/svg">
<path fill-rule="evenodd" clip-rule="evenodd" d="M0 16.709C0 25.5455 7.16344 32.709 16 32.709C24.8366 32.709 32 25.5455 32 16.709C32 7.87243 24.8366 0.708984 16 0.708984C7.16344 0.708984 0 7.87243 0 16.709ZM13.0667 24.0423L13.3389 19.9638L13.3387 19.9636L20.758 13.2683C21.0836 12.9793 20.6868 12.8384 20.2546 13.1005L11.0982 18.8772L7.14312 17.6427C6.289 17.3812 6.28287 16.7943 7.33488 16.3724L22.7469 10.4296C23.4508 10.11 24.1302 10.5986 23.8615 11.676L21.2368 24.0444C21.0535 24.9233 20.5225 25.1335 19.7867 24.7275L15.7885 21.7736L13.8667 23.6423C13.8606 23.6482 13.8546 23.6541 13.8486 23.6599C13.6336 23.8692 13.4558 24.0423 13.0667 24.0423Z" fill="#FDFDFD"/>
</svg>
